<?xml version="1.0" standalone="no"?>
<!DOCTYPE svg PUBLIC "-//W3C//DTD SVG 20010904//EN"
 "http://www.w3.org/TR/2001/REC-SVG-20010904/DTD/svg10.dtd">
<svg version="1.0" xmlns="http://www.w3.org/2000/svg"
 width="840.000000pt" height="840.000000pt" viewBox="0 0 840.000000 840.000000"
 preserveAspectRatio="xMidYMid meet">
<metadata>
Created by potrace 1.11, written by Peter Selinger 2001-2013
</metadata>
<g transform="translate(0.000000,840.000000) scale(0.100000,-0.100000)"
fill="#000000" stroke="none">
<path d="M3075 8323 c-408 -22 -846 -136 -1220 -318 -208 -101 -341 -192 -330
-226 5 -14 -3 -27 -24 -45 -17 -14 -38 -40 -46 -57 -26 -56 -163 -186 -178
-170 -4 3 -15 -1 -26 -11 -10 -9 -22 -16 -27 -15 -5 1 -16 0 -24 -3 -24 -8
-103 -29 -134 -35 -43 -8 -262 -232 -384 -392 -439 -574 -664 -1238 -665
-1961 -1 -232 11 -369 49 -580 197 -1084 933 -1987 1952 -2396 127 -51 162
-62 162 -48 0 3 -23 72 -51 153 -180 520 -226 1051 -138 1579 66 398 233 855
422 1156 17 27 32 57 34 65 1 9 12 25 25 36 21 18 64 75 93 123 6 9 15 22 20
28 6 7 21 29 35 48 14 20 30 36 35 36 12 1 95 113 95 129 0 6 4 11 9 11 6 0
18 14 28 30 9 17 22 30 28 30 15 0 90 80 99 105 4 11 4 16 0 12 -4 -4 -13 1
-21 11 -14 16 -14 16 -9 -2 6 -16 4 -17 -9 -6 -8 7 -24 10 -35 7 -12 -3 -24 1
-30 11 -5 10 -10 12 -10 5 0 -20 -20 -15 -21 5 0 10 -3 12 -6 5 -5 -15 -33
-18 -33 -4 0 6 5 13 11 17 6 3 9 17 7 29 -3 15 0 22 8 21 22 -3 28 -15 15 -30
-9 -11 -8 -15 5 -20 9 -3 20 -4 25 0 5 3 9 -2 9 -11 0 -13 5 -15 18 -10 9 4
29 10 44 12 15 3 29 12 32 20 4 10 2 13 -8 10 -8 -3 -17 1 -20 9 -3 9 -11 12
-17 8 -7 -4 -9 -3 -6 2 9 16 -10 37 -27 31 -9 -4 -16 -15 -16 -26 0 -11 -4
-23 -10 -26 -21 -13 -4 41 20 62 14 13 20 23 14 23 -6 0 -11 6 -11 13 0 6 -4
21 -8 32 -6 16 -5 17 4 5 9 -13 12 -12 17 8 4 12 14 22 23 21 10 0 11 -2 4 -6
-7 -2 -13 -11 -13 -18 0 -7 -5 -15 -12 -17 -12 -4 -3 -28 11 -28 4 0 13 16 20
36 10 27 16 33 22 23 5 -8 9 -9 9 -3 0 15 -25 36 -33 27 -4 -3 -7 7 -7 23 0
22 3 26 10 14 7 -11 10 -11 10 -2 0 7 5 10 10 7 6 -4 8 -12 4 -18 -3 -7 1 -4
9 6 11 14 16 15 20 5 4 -9 6 -8 6 4 1 9 -5 19 -11 21 -8 3 -5 6 5 6 10 1 15 6
12 11 -4 6 -11 8 -16 5 -5 -4 -9 1 -9 9 0 9 4 16 9 16 5 0 11 7 15 15 4 12 2
13 -13 6 -10 -6 -22 -18 -25 -27 -6 -16 -8 -15 -20 2 -14 18 -15 18 -27 -9
-14 -30 -36 -36 -46 -11 -6 15 -8 15 -20 -2 -7 -10 -13 -13 -13 -8 0 5 -11 11
-25 12 -15 1 -24 -3 -22 -11 1 -6 -4 -11 -10 -9 -7 1 -13 -7 -13 -17 0 -11 -4
-22 -9 -25 -15 -10 -7 -65 13 -88 15 -18 17 -25 7 -41 -7 -10 -11 -21 -8 -23
2 -2 10 7 17 21 7 14 22 25 32 25 22 0 23 -9 2 -25 -10 -7 -18 -29 -20 -51 -1
-21 -3 -41 -4 -44 0 -3 -5 2 -10 10 -8 11 -10 8 -8 -15 2 -21 -2 -30 -12 -31
-8 -1 -21 -2 -27 -3 -7 0 -13 -11 -13 -23 0 -19 -2 -20 -10 -8 -8 12 -10 11
-10 -7 0 -12 5 -25 10 -28 6 -3 10 -16 10 -28 -1 -22 -1 -22 -16 -2 -16 20
-16 19 -9 -4 5 -15 3 -21 -3 -17 -6 3 -22 1 -36 -5 -23 -11 -25 -16 -23 -75 1
-42 6 -64 14 -64 7 0 17 -8 22 -17 6 -10 11 -12 11 -5 0 13 30 17 30 3 0 -5
-12 -16 -26 -26 -19 -12 -28 -14 -34 -6 -4 7 -11 11 -16 10 -23 -4 -32 3 -37
34 -3 17 -9 41 -13 51 -5 14 -4 17 4 12 7 -4 12 -2 12 3 0 6 -4 11 -10 11 -5
0 -10 7 -10 15 0 8 5 15 11 15 6 0 9 7 5 15 -3 8 -1 15 5 15 6 0 9 7 6 15 -4
8 -2 17 3 20 5 3 7 12 3 20 -3 9 1 15 8 15 11 1 11 3 -1 13 -18 14 -26 57 -11
57 6 0 11 9 11 20 0 22 10 26 26 10 6 -6 15 -6 24 0 13 8 12 10 -3 10 -10 0
-15 5 -12 10 3 6 -2 10 -12 10 -15 1 -14 3 6 14 l23 13 -23 6 c-22 6 -19 22 4
22 7 0 11 13 10 30 l-2 30 14 -25 c16 -29 18 -15 6 48 -7 35 -6 42 5 38 8 -3
14 1 14 9 0 19 -14 19 -30 0 -7 -8 -17 -15 -23 -15 -6 0 -7 3 -4 6 3 4 2 15
-4 25 -7 15 -6 19 6 19 8 0 15 6 15 14 0 8 5 18 12 22 7 4 8 3 4 -5 -4 -6 0
-18 9 -27 15 -15 15 -14 9 11 -5 21 -2 31 10 40 14 11 15 17 5 39 -10 20 -15
23 -26 14 -7 -6 -17 -7 -21 -3 -4 4 -1 10 6 12 14 5 16 43 2 43 -5 0 -10 -5
-10 -12 0 -6 -8 -1 -19 10 -10 12 -23 22 -30 22 -6 0 -11 7 -11 15 0 8 -4 15
-10 15 -5 0 -10 -7 -10 -15 0 -8 5 -15 10 -15 6 0 10 -7 10 -16 0 -8 5 -12 10
-9 6 3 10 -1 10 -11 0 -14 -2 -15 -17 -3 -10 8 -21 18 -24 23 -4 5 -15 -3 -24
-18 -17 -26 -45 -36 -45 -15 0 5 -4 7 -10 4 -5 -3 -10 -3 -10 2 0 14 14 29 35
38 18 7 18 9 3 12 -20 5 -24 28 -8 38 6 4 8 10 5 14 -2 5 4 16 15 26 11 10 20
24 20 30 0 7 10 19 23 28 21 15 21 16 3 29 -10 8 -29 13 -42 10 -16 -3 -24 0
-24 9 0 7 -7 3 -16 -9 -9 -13 -22 -21 -28 -19 -7 3 -19 1 -26 -3 -7 -5 -24 -4
-37 1 -19 7 -23 5 -23 -11 0 -10 -9 -22 -21 -25 -13 -4 -18 -12 -15 -22 3 -8
6 -20 6 -26 0 -7 4 -6 10 3 9 13 10 13 9 0 0 -8 -13 -31 -29 -50 -17 -19 -30
-40 -30 -47 0 -7 -5 -13 -11 -13 -6 0 -8 8 -4 19 4 13 0 23 -12 30 -16 9 -16
12 -3 21 13 8 13 10 -1 10 -9 0 -22 -6 -28 -14 -9 -11 -19 -12 -47 -3 -20 6
-38 17 -41 23 -3 7 -11 10 -19 7 -8 -3 -21 0 -29 7 -20 16 -19 3 0 -16 20 -20
19 -34 -2 -34 -12 0 -14 -3 -6 -11 13 -13 5 -59 -11 -59 -6 0 -17 -9 -24 -20
-17 -27 -29 -25 -46 8 -8 15 -18 26 -23 24 -4 -1 -11 12 -14 30 -4 21 -7 25
-8 11 -1 -16 -6 -20 -21 -16 -11 3 -20 10 -20 17 0 6 -9 17 -19 23 -21 13 -22
56 -3 75 6 6 8 17 5 24 -3 8 1 14 11 14 9 0 16 5 16 10 0 6 -4 10 -9 10 -4 0
-6 11 -4 24 3 14 10 23 17 20 8 -3 12 8 13 33 0 21 -1 28 -4 16 -2 -13 -8 -23
-13 -23 -12 0 -20 29 -10 35 7 4 6 13 0 25 -6 11 -10 23 -9 27 1 4 -5 25 -14
45 -9 20 -18 68 -19 107 -3 66 -4 69 -16 44 -11 -20 -16 -23 -23 -12 -5 9 -1
20 12 32 23 21 25 31 5 24 -11 -5 -15 3 -14 32 0 29 4 38 17 37 12 -1 16 8 17
34 1 19 3 37 4 40 1 3 3 16 4 28 2 13 7 27 13 30 5 4 13 15 16 26 5 13 3 17
-7 13 -12 -5 -13 0 -5 26 11 39 11 40 -1 32 -17 -10 -11 11 10 38 11 14 20 29
20 34 0 4 14 28 30 52 35 51 31 69 -6 26 -22 -26 -24 -27 -19 -7 9 30 -12 28
-27 -3 -6 -14 -15 -25 -20 -25 -5 0 -4 9 2 19 15 29 12 41 -7 34 -16 -6 -16
-5 -4 10 10 13 10 17 1 17 -10 0 -10 3 0 15 7 9 15 13 18 10 7 -7 126 59 151
84 23 23 13 34 -24 25 -20 -5 -24 -3 -19 10 6 16 -7 25 -40 30 -8 1 -19 5 -22
9 -4 4 -17 -1 -28 -11 -24 -22 -60 -37 -51 -22 9 15 -10 12 -43 -7 -16 -9 -33
-25 -38 -36 -5 -12 -21 -21 -37 -23 -16 -2 -34 -7 -41 -13 -6 -6 -33 -8 -59
-6 -34 2 -52 -1 -63 -12 -13 -14 -17 -14 -25 -2 -11 18 -11 26 1 34 5 3 7 13
4 23 -5 14 -4 14 4 2 6 -8 8 -18 6 -22 -3 -4 2 -8 11 -8 8 0 18 6 21 14 3 8
18 20 34 26 25 10 28 15 20 35 -9 23 -5 35 11 35 5 0 6 -7 3 -15 -11 -26 14
-16 36 16 12 16 25 28 28 25 3 -3 11 2 18 12 7 9 14 12 14 5 0 -8 9 -9 30 -3
17 5 30 7 30 4 0 -3 9 0 20 6 16 8 20 8 20 -4 0 -8 -6 -16 -12 -19 -7 -2 -9
-8 -5 -13 5 -5 17 1 28 15 23 28 25 42 4 35 -23 -9 -18 13 7 30 27 19 38 20
38 4 1 -17 35 -58 49 -58 6 0 8 7 5 15 -4 11 -2 13 9 9 8 -3 18 -1 22 5 8 14
35 14 55 1 13 -9 13 -11 0 -19 -9 -7 -17 -6 -21 1 -4 7 -13 7 -28 -1 -28 -15
-27 -29 2 -36 27 -7 106 33 87 45 -11 7 -4 15 65 75 25 21 26 25 10 23 -11 -2
-22 -5 -25 -8 -18 -19 -65 -50 -76 -50 -20 0 -17 19 4 27 9 4 26 16 37 26 11
11 14 17 8 13 -19 -11 -16 20 3 39 9 9 22 14 29 12 6 -3 18 -2 25 3 9 6 7 10
-9 15 -12 3 -19 11 -15 16 3 5 9 7 14 4 13 -8 50 13 50 27 0 6 -8 4 -18 -5
-24 -22 -33 -21 -25 1 6 16 5 16 -13 1 -20 -17 -57 -22 -48 -7 3 5 9 6 13 4 4
-3 18 8 30 24 12 17 17 30 12 30 -6 0 -14 -6 -18 -14 -11 -19 -76 -51 -80 -39
-2 6 -9 18 -17 28 -12 16 -13 16 -30 0 -16 -16 -42 -17 -101 -2 -11 3 -24 6
-28 6 -5 1 -5 6 -2 11 3 6 -1 10 -9 10 -9 0 -16 7 -16 15 0 11 7 13 28 9 19
-4 32 -1 41 10 7 8 28 18 47 22 34 6 44 19 22 27 -7 2 -10 8 -6 12 4 4 14 3
21 -3 10 -8 23 -7 50 5 20 10 37 21 37 25 0 4 6 8 13 8 7 0 22 8 33 18 46 41
83 62 90 51 10 -16 60 -3 98 26 18 14 37 25 42 25 5 0 5 -4 -1 -8 -5 -4 -16
-15 -24 -25 -14 -17 -13 -17 20 0 19 10 36 21 37 26 2 4 9 7 15 7 7 0 26 7 42
16 40 22 87 35 80 23 -4 -5 -12 -9 -18 -9 -14 -1 -57 -35 -57 -45 0 -7 19 -4
80 10 8 2 15 4 15 5 0 1 8 3 19 5 10 2 23 8 29 14 17 17 31 13 17 -4 -8 -9 -8
-15 -2 -15 6 0 14 9 17 20 4 12 15 20 29 20 37 0 39 -13 4 -33 -31 -17 -31
-18 -7 -14 19 3 26 -1 25 -12 -1 -9 6 -15 17 -15 9 1 17 -2 17 -6 0 -11 24 -7
41 6 12 9 23 10 44 5 3 0 1 -10 -6 -22 -8 -15 -8 -24 0 -32 8 -8 11 -5 11 11
0 16 4 20 18 16 10 -4 13 -3 6 3 -15 11 -14 40 2 40 7 0 11 -3 9 -7 -7 -11 9
-27 35 -34 24 -7 24 -6 6 8 -11 9 -22 16 -25 16 -3 0 -7 11 -7 24 -1 18 2 23
13 19 8 -3 18 0 22 6 10 15 81 -16 81 -36 0 -16 12 -17 27 -2 5 5 26 11 45 12
37 2 43 27 7 27 -10 0 -19 5 -19 10 0 6 9 10 20 10 19 0 25 14 21 48 -1 6 5
12 14 12 8 0 15 4 15 9 0 4 11 7 24 6 14 -2 27 3 29 10 3 7 15 15 26 18 12 3
19 1 15 -4 -3 -5 5 -9 18 -9 14 0 33 -7 44 -16 19 -15 19 -15 -1 -7 -51 21
-126 -7 -149 -54 -10 -22 -13 -40 -8 -50 7 -11 11 -12 16 -4 4 6 2 11 -5 11
-7 0 -5 8 7 19 10 10 22 17 27 14 4 -2 7 3 7 13 0 13 3 14 14 5 11 -9 20 -10
36 -1 12 6 38 9 58 6 20 -3 55 -7 77 -8 26 -2 48 -11 64 -26 17 -18 26 -21 31
-11 5 6 15 9 23 6 10 -4 17 2 22 20 7 30 5 34 -24 36 -11 1 -21 5 -21 9 0 5
-19 6 -42 3 -36 -5 -45 -3 -56 15 -7 12 -8 20 -2 20 5 0 10 -4 10 -10 0 -5 4
-10 10 -10 5 0 7 7 4 15 -8 20 10 19 26 0 12 -14 15 -14 31 1 11 10 19 12 19
6 0 -6 8 -11 18 -10 9 0 32 -3 50 -7 21 -5 32 -4 32 4 0 6 8 11 18 11 10 0 22
3 26 8 4 4 15 7 24 8 10 1 29 2 45 3 15 0 27 6 27 12 0 5 -4 8 -8 5 -4 -2 -14
5 -22 17 -12 20 -12 21 3 9 9 -8 21 -11 26 -8 16 10 23 -12 11 -34 -13 -25 -2
-26 16 -2 13 16 14 16 7 -2 -4 -13 -3 -17 5 -12 6 3 15 -2 21 -11 7 -12 13
-14 18 -7 5 6 17 16 29 22 16 9 22 7 32 -9 7 -11 10 -24 7 -29 -3 -5 3 -14 14
-19 14 -8 19 -19 16 -41 -2 -17 0 -41 5 -53 9 -21 9 -22 9 -1 1 29 35 66 48
53 8 -8 13 -7 17 0 4 6 13 11 19 11 8 0 8 -3 -2 -9 -11 -7 -10 -13 4 -34 9
-15 14 -31 10 -36 -3 -6 -1 -19 4 -28 8 -14 11 -15 11 -3 0 12 4 10 15 -4 8
-11 15 -15 15 -9 0 13 -25 35 -32 28 -3 -3 -5 8 -4 25 1 34 21 48 24 16 1 -22
39 -59 52 -51 4 2 15 -4 25 -15 16 -17 16 -20 2 -20 -8 0 -18 6 -20 13 -3 6
-6 2 -6 -10 -1 -13 4 -23 10 -23 5 0 7 -5 4 -10 -7 -11 13 -33 33 -37 6 -2 12
1 12 7 0 5 8 6 18 3 14 -6 15 -4 5 8 -7 9 -14 31 -17 51 l-4 36 29 -11 c16 -6
29 -17 29 -24 0 -6 5 -15 12 -19 7 -4 8 -3 4 4 -5 8 -2 10 8 6 9 -3 16 -12 16
-18 0 -7 6 -20 13 -31 11 -14 16 -15 22 -5 5 8 4 11 -2 7 -6 -4 -13 2 -16 13
-7 28 10 25 43 -9 16 -16 32 -26 36 -22 4 3 0 -4 -7 -16 -8 -13 -18 -23 -24
-23 -19 0 -90 41 -112 65 l-21 24 2 -33 c2 -18 8 -41 15 -52 11 -17 12 -16 6
9 l-6 28 41 -26 c48 -30 83 -32 108 -5 18 20 18 20 18 -13 -1 -27 -5 -33 -18
-29 -21 5 -68 -5 -68 -16 0 -4 19 -8 43 -9 23 0 52 -4 65 -7 31 -7 52 3 52 24
0 20 16 35 40 35 8 0 21 4 28 8 8 6 12 1 13 -15 0 -22 1 -22 9 -3 8 19 9 19 9
-2 1 -26 11 -29 30 -10 11 10 13 9 8 -4 -4 -13 2 -18 23 -21 20 -3 27 -1 23 9
-10 25 16 13 37 -18 26 -35 24 -39 -23 -45 -96 -12 -152 -71 -67 -71 22 0 43
3 45 7 3 4 37 -4 77 -17 46 -16 74 -21 76 -14 5 15 19 14 47 -5 14 -9 21 -22
18 -30 -3 -8 -9 -12 -13 -9 -13 8 -31 -21 -24 -39 3 -9 15 -16 25 -16 12 0 16
5 13 15 -3 8 1 28 9 44 11 22 12 31 3 35 -7 3 -7 5 2 5 7 1 17 -11 23 -26 7
-20 13 -23 21 -15 16 16 29 15 22 -2 -3 -8 -19 -20 -35 -26 -35 -15 -37 -27
-7 -32 28 -4 35 -32 14 -53 -13 -13 -15 -13 -21 5 -5 16 -10 18 -25 10 -11 -6
-28 -7 -42 -1 -28 10 -88 3 -104 -14 -12 -11 -4 -38 10 -36 18 3 26 0 26 -8 0
-5 -10 -7 -21 -4 -15 4 -20 2 -17 -8 2 -7 20 -14 41 -15 31 -1 37 3 38 20 1
19 2 19 6 2 4 -15 7 -16 14 -5 7 11 9 11 9 1 0 -7 4 -11 9 -7 5 3 12 -3 16
-14 9 -29 44 -34 55 -8 8 21 15 9 11 -20 -1 -7 3 -22 9 -33 8 -16 8 -20 -4
-20 -8 0 -16 5 -18 12 -2 6 -15 13 -29 14 -22 4 -23 3 -4 -8 11 -6 28 -18 38
-26 16 -14 16 -17 1 -33 -13 -15 -14 -23 -4 -53 15 -47 24 -46 15 1 -7 37 -6
37 13 20 10 -10 27 -36 38 -58 14 -33 15 -44 6 -60 -16 -25 -15 -29 4 -29 14
0 16 8 11 48 -2 26 -8 56 -13 66 -7 18 -6 18 14 -2 23 -23 44 -100 23 -88 -7
5 -11 -1 -11 -13 0 -14 -9 -23 -27 -27 -16 -4 -34 -13 -40 -22 -7 -9 -13 -13
-13 -9 0 4 -8 -1 -18 -10 -14 -13 -16 -24 -11 -40 5 -14 5 -23 -2 -23 -5 0
-13 10 -18 22 -7 20 -51 34 -51 16 0 -4 8 -8 17 -8 15 0 14 -2 -3 -16 -16 -13
-16 -15 -1 -10 9 3 17 2 17 -3 0 -16 -14 -20 -28 -9 -22 18 -81 37 -87 27 -3
-4 -3 -21 0 -36 4 -23 3 -22 -8 6 -13 34 -37 54 -37 31 0 -6 5 -8 10 -5 6 3
10 1 10 -4 0 -6 -4 -11 -10 -11 -16 0 -23 -2 -47 -11 -15 -5 -23 -4 -27 7 -6
16 -36 19 -36 4 0 -5 5 -10 11 -10 11 0 39 -24 39 -34 0 -3 -7 -6 -16 -6 -8 0
-12 -5 -9 -11 11 -16 40 -6 40 15 0 14 8 19 33 21 24 2 32 -1 28 -10 -3 -8 2
-12 12 -10 29 4 34 -6 12 -25 -12 -11 -19 -24 -15 -29 9 -15 36 -14 33 1 -2 8
8 12 30 11 17 -1 32 2 32 7 0 4 7 10 15 13 11 5 13 -1 9 -26 -4 -24 -3 -28 5
-17 9 12 11 11 11 -7 0 -13 5 -23 11 -23 7 0 9 10 5 26 -6 21 -4 25 8 21 9 -4
20 1 25 11 6 9 11 12 11 6 0 -6 -7 -17 -15 -24 -29 -24 -15 -31 20 -10 32 20
36 20 59 5 16 -11 26 -13 31 -6 3 6 3 11 0 11 -4 0 1 7 9 16 9 8 16 26 16 39
0 13 4 26 9 29 5 3 7 32 5 65 -2 43 1 61 10 64 8 3 17 3 20 0 9 -10 7 -101 -3
-107 -4 -3 -11 -20 -15 -37 -16 -79 -53 -118 -83 -88 -17 17 -43 3 -43 -21 0
-12 5 -18 10 -15 6 4 10 -10 10 -34 0 -31 -7 -46 -31 -70 -17 -17 -38 -30 -47
-29 -10 2 -21 -7 -27 -19 -6 -14 -16 -21 -25 -19 -17 5 -71 9 -114 7 -19 -1
-27 -5 -23 -15 3 -7 1 -18 -4 -23 -5 -5 -7 -18 -3 -27 6 -16 15 -17 63 -11 31
4 117 13 191 19 l135 12 -2 29 c-1 16 -16 55 -33 86 -36 68 -38 80 -7 51 35
-33 87 -51 116 -41 17 7 27 6 33 -3 5 -9 8 -6 8 10 0 13 4 20 10 17 6 -3 10 5
10 19 0 14 5 28 10 31 8 5 7 11 -1 21 -7 9 -8 14 -1 14 20 0 97 -107 97 -135
0 -11 14 -28 32 -40 20 -13 32 -28 33 -42 0 -13 4 -23 10 -23 15 0 233 -30
257 -35 18 -4 20 -9 14 -32 -5 -16 -14 -27 -21 -25 -11 3 -11 0 0 -13 19 -23
4 -30 -76 -33 -38 -2 -76 -8 -85 -13 -10 -5 -31 -9 -46 -9 -16 0 -33 -4 -39
-9 -5 -5 -52 -12 -104 -16 -123 -8 -285 -30 -380 -50 -41 -9 -86 -18 -100 -20
-83 -14 -324 -92 -360 -118 -13 -9 -32 -17 -41 -17 -9 0 -33 -7 -53 -15 -20
-8 -37 -14 -39 -13 -2 2 -10 -2 -18 -9 -8 -7 -68 -39 -132 -72 -65 -33 -130
-69 -145 -79 -15 -11 -37 -23 -50 -27 -13 -3 -38 -21 -57 -38 -44 -42 -56 -52
-87 -68 -27 -15 -108 -80 -142 -115 -12 -12 -31 -41 -43 -65 -12 -24 -26 -43
-30 -41 -4 1 -8 -2 -8 -7 0 -14 -37 -46 -73 -65 -19 -10 -32 -24 -32 -35 0
-27 -26 -81 -55 -116 -25 -30 -25 -30 -25 -6 0 24 -1 24 -14 5 -9 -12 -11 -23
-5 -30 6 -8 4 -14 -7 -18 -23 -9 -24 -8 -18 12 5 14 3 14 -10 -3 -15 -18 -15
-20 6 -31 13 -7 23 -16 23 -21 0 -4 4 -14 9 -22 6 -9 5 -12 -1 -8 -6 4 -13 0
-17 -8 -3 -8 -19 -23 -36 -34 -28 -17 -29 -19 -11 -24 25 -6 39 -36 21 -47 -7
-4 -9 -16 -6 -28 5 -15 1 -24 -15 -32 -15 -8 -19 -9 -15 -1 10 16 -10 13 -24
-4 -6 -8 -9 -18 -6 -24 4 -5 -3 -7 -16 -3 -20 5 -21 3 -10 -10 10 -12 10 -17
1 -20 -7 -2 -13 -15 -14 -29 -1 -17 -7 -23 -20 -21 -16 3 -17 2 -6 -12 11 -13
11 -16 1 -16 -8 0 -11 -3 -7 -6 3 -4 0 -19 -8 -34 -8 -15 -13 -45 -12 -66 2
-41 -7 -64 -25 -64 -7 0 -7 4 0 13 5 6 8 25 7 41 -2 17 3 45 11 64 16 39 18
54 5 33 -5 -7 -14 -10 -20 -6 -8 5 -9 11 -2 19 6 7 8 16 4 19 -3 4 -1 7 5 7 5
0 12 -6 15 -12 2 -7 8 -10 12 -6 4 4 0 21 -9 39 -9 18 -14 42 -10 53 5 20 5
19 -11 -2 -9 -12 -21 -20 -26 -17 -5 4 -10 -2 -10 -12 -1 -17 -3 -27 -9 -48
-1 -5 -3 -14 -4 -20 -1 -5 -6 -23 -10 -38 -7 -23 -5 -31 13 -43 12 -9 18 -20
15 -26 -4 -6 -9 -5 -15 3 -5 9 -8 4 -6 -16 1 -23 -3 -32 -21 -40 -14 -6 -21
-16 -19 -27 3 -11 0 -15 -9 -11 -7 2 -11 10 -8 17 7 19 -19 37 -36 26 -13 -8
-12 -10 3 -10 10 0 17 -8 17 -18 0 -18 39 -62 45 -52 2 3 6 2 9 -1 12 -11 -23
-31 -41 -24 -10 4 -29 9 -42 11 -13 2 -28 9 -32 16 -7 10 -9 9 -9 -3 0 -9 -7
-22 -15 -29 -9 -7 -14 -19 -11 -27 3 -7 1 -13 -5 -13 -7 0 -8 -14 -4 -40 5
-28 3 -40 -5 -40 -7 0 -10 6 -7 14 3 8 -2 20 -10 28 -15 11 -16 11 -10 -4 3
-10 2 -18 -4 -18 -6 0 -8 -9 -4 -21 5 -15 4 -19 -4 -15 -6 4 -11 0 -11 -9 0
-8 -6 -18 -14 -21 -9 -3 -12 -12 -9 -21 5 -12 3 -14 -7 -8 -10 6 -12 2 -8 -18
3 -15 1 -24 -3 -21 -5 3 -9 0 -9 -6 0 -6 -4 -8 -10 -5 -5 3 -10 0 -10 -9 0 -8
-5 -16 -12 -18 -7 -3 -9 -12 -5 -22 8 -20 25 -13 37 18 6 14 7 2 3 -34 -6 -66
-9 -73 -33 -65 -10 3 -22 0 -26 -6 -5 -9 -2 -10 9 -6 10 3 17 3 17 -2 0 -5
-10 -11 -21 -14 -15 -4 -20 -11 -15 -22 3 -9 2 -13 -3 -10 -5 3 -12 -4 -16
-15 -3 -11 -11 -20 -16 -20 -6 0 -7 5 -4 10 3 6 -1 10 -9 10 -10 0 -16 9 -16
25 0 14 -6 25 -13 25 -9 0 -12 -10 -10 -32 4 -26 2 -30 -6 -18 -10 13 -12 13
-21 0 -9 -13 -14 -11 -35 13 -29 32 -32 27 -9 -13 16 -26 16 -30 -6 -74 -15
-32 -21 -59 -18 -86 2 -28 0 -40 -9 -40 -7 0 -13 -4 -13 -10 0 -5 5 -10 12
-10 6 0 -2 -11 -18 -25 -15 -13 -29 -35 -29 -47 -1 -13 -5 -31 -9 -40 -4 -9
-4 -23 0 -29 5 -8 2 -10 -8 -6 -13 5 -15 -1 -12 -34 3 -29 0 -38 -9 -34 -6 4
4 -7 23 -24 29 -25 31 -29 13 -24 -19 4 -23 1 -23 -16 0 -11 5 -21 10 -21 6 0
10 -7 10 -16 0 -8 -5 -12 -10 -9 -10 6 7 -40 22 -61 9 -12 -5 -61 -16 -56 -17
6 -21 -2 -21 -48 0 -28 -3 -50 -8 -50 -4 0 -6 -4 -2 -9 3 -5 0 -13 -6 -16 -6
-4 -8 -18 -5 -31 4 -14 2 -24 -4 -24 -6 0 -8 -5 -4 -11 3 -6 1 -15 -6 -19 -7
-4 -9 -13 -6 -19 4 -6 11 -9 16 -6 9 6 23 -25 15 -33 -3 -3 -5 0 -5 6 0 7 -5
12 -11 12 -13 0 -1 -62 15 -73 6 -5 1 -6 -11 -2 -24 7 -28 -1 -14 -24 6 -9 6
-22 0 -34 -6 -10 -12 -35 -13 -56 -1 -20 -6 -42 -10 -49 -4 -7 -4 -12 1 -12 4
0 9 -19 10 -43 1 -23 5 -53 8 -66 6 -22 5 -23 -11 -10 -16 13 -17 12 -10 -6 5
-11 9 -26 9 -34 0 -9 5 -8 14 5 13 17 14 8 8 -64 -4 -51 -2 -81 4 -78 5 3 12
-1 15 -10 9 -22 8 -26 -5 -18 -12 7 -2 -56 10 -66 3 -3 7 -22 8 -42 2 -41 36
-114 55 -120 8 -3 12 -18 10 -39 -2 -25 3 -40 17 -53 12 -11 21 -26 20 -35 0
-12 -2 -13 -6 -2 -9 22 -43 53 -55 48 -7 -2 -2 -13 11 -26 14 -14 21 -30 18
-42 -3 -11 1 -23 10 -28 19 -10 10 -41 -11 -41 -18 0 -11 -26 15 -55 18 -21
69 -126 69 -144 0 -5 3 -11 8 -14 4 -2 1 -2 -7 0 -20 5 -5 -44 24 -75 15 -16
20 -29 14 -33 -6 -4 3 -18 23 -34 18 -15 25 -25 16 -21 -10 3 -18 1 -18 -4 0
-6 6 -10 13 -10 13 -1 53 -50 39 -50 -4 0 -12 3 -18 7 -5 5 2 -3 16 -16 14
-14 24 -29 22 -33 -3 -10 22 -38 35 -38 10 -1 43 -66 43 -85 0 -8 4 -15 9 -15
5 0 15 -17 22 -37 14 -43 77 -143 90 -143 5 0 9 -8 9 -18 0 -10 9 -24 19 -31
11 -8 17 -20 15 -26 -3 -7 4 -15 15 -18 14 -3 19 -10 15 -21 -3 -9 -1 -16 6
-16 7 0 9 -8 5 -20 -6 -19 7 -26 38 -21 4 0 7 -7 7 -17 0 -9 9 -23 21 -30 12
-7 18 -16 15 -20 -8 -8 54 -72 71 -72 7 0 10 -7 7 -15 -4 -8 1 -17 10 -21 9
-3 16 -12 16 -20 0 -7 13 -20 30 -29 16 -8 29 -19 29 -23 -3 -20 2 -32 14 -32
8 0 24 -11 37 -25 13 -14 29 -25 37 -25 11 0 14 -5 13 -25 -1 -4 35 -35 80
-71 44 -36 80 -69 80 -74 0 -6 3 -9 8 -8 11 3 64 -28 92 -54 14 -13 42 -34 63
-47 20 -12 37 -27 37 -32 0 -5 7 -9 16 -9 8 0 29 -14 46 -30 16 -17 43 -37 59
-46 16 -8 29 -17 29 -20 0 -3 -6 -2 -12 1 -7 3 -3 -2 10 -12 13 -10 44 -37 69
-60 25 -24 50 -43 55 -43 6 0 8 -11 6 -25 -3 -14 -1 -28 4 -31 12 -8 -10 -34
-25 -30 -7 1 -9 1 -4 -1 4 -3 7 -11 7 -18 0 -15 158 -79 295 -118 286 -84 504
-117 812 -124 411 -10 752 41 1116 167 1104 380 1913 1323 2121 2470 38 210
50 347 49 580 0 369 -48 664 -163 1010 -234 704 -707 1309 -1332 1700 -134 84
-393 215 -535 270 l-113 43 -22 51 c-55 123 -162 334 -219 428 -310 515 -768
938 -1309 1208 -495 248 -1056 364 -1615 333z m321 -229 c-4 -9 -9 -15 -11
-12 -3 3 -3 13 1 22 4 9 9 15 11 12 3 -3 3 -13 -1 -22z m30 -43 c-13 -13 -19
-13 -41 -1 -14 7 -25 18 -25 23 0 6 9 2 19 -7 19 -18 41 -15 41 5 0 6 -5 7
-12 3 -8 -5 -9 -2 -5 10 4 10 7 23 7 29 0 7 7 -1 15 -17 14 -26 14 -31 1 -45z
m-96 17 c0 -5 -5 -8 -11 -8 -5 0 -7 5 -4 10 3 6 -2 10 -12 10 -15 0 -16 2 -3
10 14 8 29 -3 30 -22z m-399 -1 c-10 -9 -11 -8 -5 6 3 10 9 15 12 12 3 -3 0
-11 -7 -18z m-121 -3 c0 -8 -4 -12 -10 -9 -5 3 -10 10 -10 16 0 5 5 9 10 9 6
0 10 -7 10 -16z m660 -9 c-7 -9 -15 -13 -19 -10 -3 3 1 10 9 15 21 14 24 12
10 -5z m160 5 c0 -5 -5 -10 -11 -10 -5 0 -7 5 -4 10 3 6 8 10 11 10 2 0 4 -4
4 -10z m-870 -12 c0 -4 -3 -8 -7 -9 -32 -3 -48 -11 -74 -38 -16 -17 -29 -25
-29 -18 0 8 -3 9 -8 1 -7 -11 -73 -37 -78 -31 -2 2 23 15 56 31 33 15 60 32
60 39 0 14 37 34 63 33 9 0 17 -4 17 -8z m-20 -48 c-8 -6 -22 -10 -30 -9 -9 0
-5 6 10 14 27 14 44 10 20 -5z m335 -20 c3 -5 1 -10 -4 -10 -6 0 -11 5 -11 10
0 6 2 10 4 10 3 0 8 -4 11 -10z m151 1 c-3 -5 -16 -11 -28 -14 -22 -6 -22 -5
-4 8 22 17 40 20 32 6z m254 -25 c0 -3 -4 -8 -10 -11 -5 -3 -10 -1 -10 4 0 6
5 11 10 11 6 0 10 -2 10 -4z m794 -72 c9 -24 7 -27 -9 -10 -17 17 -19 26 -6
26 5 0 12 -7 15 -16z m-200 -10 c3 -8 2 -12 -4 -9 -6 3 -10 10 -10 16 0 14 7
11 14 -7z m-2004 -54 c0 -5 -5 -10 -11 -10 -5 0 -7 5 -4 10 3 6 8 10 11 10 2
0 4 -4 4 -10z m-105 -30 c-3 -5 -12 -10 -18 -10 -7 0 -6 4 3 10 19 12 23 12
15 0z m109 -11 c-12 -13 -20 -16 -22 -9 -3 7 2 16 9 21 25 16 32 9 13 -12z
m2021 11 c3 -5 1 -10 -4 -10 -6 0 -11 5 -11 10 0 6 2 10 4 10 3 0 8 -4 11 -10z
m-2126 -34 c-2 -2 -15 -7 -29 -10 l-25 -7 25 15 c21 12 42 14 29 2z m2441 -5
c0 -11 -4 -22 -9 -25 -5 -3 -8 5 -7 19 1 29 16 34 16 6z m-39 -60 c-8 -44 -26
-50 -27 -10 -1 17 2 25 6 19 5 -7 9 -3 13 11 9 35 16 18 8 -20z m-2773 13 c-9
-9 -22 -14 -30 -11 -8 3 -4 8 12 15 35 15 37 14 18 -4z m332 -4 c0 -5 -8 -10
-17 -10 -15 0 -16 2 -3 10 19 12 20 12 20 0z m2760 0 c0 -5 -4 -10 -10 -10 -5
0 -10 5 -10 10 0 6 5 10 10 10 6 0 10 -4 10 -10z m-3180 -25 c-7 -9 -15 -13
-17 -11 -7 7 7 26 19 26 6 0 6 -6 -2 -15z m40 5 c0 -5 -2 -10 -4 -10 -3 0 -8
5 -11 10 -3 6 -1 10 4 10 6 0 11 -4 11 -10z m250 0 c0 -5 -5 -10 -11 -10 -5 0
-7 5 -4 10 3 6 8 10 11 10 2 0 4 -4 4 -10z m50 -13 c0 -8 -19 -21 -42 -30
l-41 -17 23 25 c13 13 26 22 31 20 4 -3 10 -1 14 5 9 14 15 13 15 -3z m2827
-16 c-1 -16 -5 -27 -9 -24 -5 2 -8 -1 -8 -7 0 -7 -6 -5 -15 4 -19 19 -19 30
-1 23 9 -4 17 2 21 14 9 28 15 23 12 -10z m-2940 -73 c-9 -5 -14 -14 -11 -21
2 -7 -4 -22 -15 -34 -11 -11 -18 -24 -16 -27 3 -3 -3 1 -12 9 -16 14 -16 16 5
31 12 8 20 20 16 25 -9 15 15 39 33 32 14 -5 14 -7 0 -15z m2823 -28 c0 -5 -5
-10 -11 -10 -5 0 -7 5 -4 10 3 6 8 10 11 10 2 0 4 -4 4 -10z m205 -20 c3 -5 1
-10 -4 -10 -6 0 -11 5 -11 10 0 6 2 10 4 10 3 0 8 -4 11 -10z m-2683 -42 c-7
-7 -12 -8 -12 -2 0 14 12 26 19 19 2 -3 -1 -11 -7 -17z m-412 7 c0 -2 -10 -10
-22 -16 -21 -11 -22 -11 -9 4 13 16 31 23 31 12z m240 1 c0 -3 -4 -8 -10 -11
-5 -3 -10 -1 -10 4 0 6 5 11 10 11 6 0 10 -2 10 -4z m-65 -26 c-3 -5 -11 -10
-16 -10 -6 0 -7 5 -4 10 3 6 11 10 16 10 6 0 7 -4 4 -10z m-365 -4 c0 -3 -4
-8 -10 -11 -5 -3 -10 -1 -10 4 0 6 5 11 10 11 6 0 10 -2 10 -4z m220 -21 c-6
-8 -9 -18 -7 -22 8 -13 -24 -48 -55 -61 -33 -13 -35 -10 -11 18 10 11 18 28
18 38 0 10 7 16 18 15 11 0 16 4 14 11 -3 7 4 13 15 13 16 2 17 -1 8 -12z
m131 -17 c-17 -17 -31 -35 -31 -40 0 -4 -4 -8 -10 -8 -5 0 -10 3 -10 8 0 11
60 72 72 72 6 0 -4 -14 -21 -32z m19 -18 c-6 -11 -15 -20 -20 -20 -16 0 -11
18 8 29 24 14 24 14 12 -9z m-370 -68 c0 -8 -35 -32 -47 -33 -5 0 -18 -10 -30
-21 -13 -12 -23 -16 -23 -10 0 7 19 25 42 42 41 30 58 37 58 22z m3455 -70
c-6 -7 -35 18 -35 31 0 5 9 2 20 -8 11 -10 18 -20 15 -23z m-3487 -4 c-14 -18
-31 -34 -39 -36 -8 -3 -2 8 14 23 15 15 27 32 27 36 0 5 5 9 11 9 6 0 0 -14
-13 -32z m39 12 c-4 -17 -2 -20 14 -15 30 10 22 -3 -13 -21 -18 -10 -38 -24
-45 -33 -7 -9 -13 -14 -13 -11 0 6 29 65 43 88 12 19 20 14 14 -8z m-127 -15
c-7 -9 -15 -13 -17 -11 -7 7 7 26 19 26 6 0 6 -6 -2 -15z m165 -35 c-3 -5 -10
-10 -16 -10 -5 0 -9 5 -9 10 0 6 7 10 16 10 8 0 12 -4 9 -10z m-195 -35 c-13
-14 -26 -23 -28 -20 -3 3 5 16 18 30 13 14 26 23 28 20 3 -3 -5 -16 -18 -30z
m570 -5 c-24 -15 -37 -11 -16 5 11 8 22 12 25 9 3 -3 -1 -9 -9 -14z m3200 16
c0 -3 -4 -8 -10 -11 -5 -3 -10 -1 -10 4 0 6 5 11 10 11 6 0 10 -2 10 -4z
m-3700 -46 c0 -5 -5 -10 -11 -10 -5 0 -7 5 -4 10 3 6 8 10 11 10 2 0 4 -4 4
-10z m-50 -20 c0 -5 -4 -10 -10 -10 -5 0 -10 5 -10 10 0 6 5 10 10 10 6 0 10
-4 10 -10z m-60 -19 c-10 -21 -30 -37 -30 -26 0 14 21 45 31 45 6 0 6 -7 -1
-19z m385 9 c-3 -5 -11 -10 -16 -10 -6 0 -7 5 -4 10 3 6 11 10 16 10 6 0 7 -4
4 -10z m3380 -9 c3 -5 1 -12 -5 -16 -5 -3 -10 1 -10 9 0 18 6 21 15 7z m-38
-43 c-3 -8 -6 -5 -6 6 -1 11 2 17 5 13 3 -3 4 -12 1 -19z m-3189 -48 c-7 -11
-15 -15 -17 -9 -2 6 3 15 10 20 20 12 21 11 7 -11z m3165 -5 c4 -8 2 -17 -3
-20 -6 -4 -10 3 -10 14 0 25 6 27 13 6z m34 -32 c-3 -10 -5 -4 -5 12 0 17 2
24 5 18 2 -7 2 -21 0 -30z m-3497 -2 c0 -16 -19 -32 -42 -35 -5 -1 -7 -5 -5
-11 1 -5 7 -8 12 -7 22 8 95 13 95 7 0 -12 -28 -34 -34 -28 -10 11 -36 12 -36
2 0 -4 9 -24 19 -43 l20 -34 -28 -4 c-15 -2 -33 2 -40 9 -10 12 -16 12 -28 1
-21 -17 -20 -17 -38 9 -15 21 -15 25 2 48 10 13 21 25 26 25 4 0 7 7 7 15 0 7
6 18 13 22 8 4 16 16 20 26 9 23 37 22 37 -2z m3396 -116 c1 -14 -4 -31 -12
-39 -8 -8 -11 -21 -8 -29 3 -8 -2 -17 -10 -20 -9 -4 -16 -1 -16 4 0 7 -11 9
-25 7 -14 -3 -25 -4 -25 -2 0 1 -3 10 -7 20 -5 14 -3 16 12 11 25 -10 45 10
45 45 0 26 2 29 15 18 12 -10 15 -9 15 5 0 26 13 10 16 -20z m-3602 -37 c-4
-13 -8 -32 -9 -43 -1 -11 -14 -27 -29 -35 -23 -13 -28 -13 -35 -1 -7 11 2 27
32 58 22 24 43 43 45 43 2 0 0 -10 -4 -22z m3414 -15 c-3 -18 -29 -26 -27 -9
0 5 -5 13 -13 17 -9 6 -4 9 15 9 22 0 28 -4 25 -17z m227 -32 c-9 -16 -25 -3
-18 15 4 10 9 12 15 6 6 -6 7 -15 3 -21z m-3889 4 c-11 -8 -22 -12 -25 -9 -6
6 19 24 34 24 6 -1 1 -7 -9 -15z m49 -5 c3 -5 -10 -17 -29 -27 -19 -9 -38 -23
-41 -32 -5 -12 -2 -12 13 2 23 21 36 22 28 1 -3 -8 -2 -12 4 -9 6 3 10 0 10
-7 1 -9 4 -9 13 3 46 58 58 71 62 67 8 -7 -16 -69 -25 -63 -4 2 -5 -6 -3 -19
3 -13 0 -27 -6 -30 -5 -4 -8 -13 -5 -20 3 -8 1 -17 -5 -21 -6 -3 -11 -17 -11
-31 0 -16 4 -23 11 -18 8 4 9 -1 4 -16 -5 -15 -4 -20 4 -16 7 5 11 -3 11 -21
0 -18 -3 -24 -9 -15 -6 10 -10 10 -21 -3 -11 -14 -11 -16 1 -13 8 2 15 -7 17
-19 2 -13 10 -23 18 -23 8 0 12 -5 9 -10 -4 -6 -11 -7 -17 -4 -7 5 -9 -2 -4
-19 3 -14 1 -29 -4 -32 -6 -4 -8 -15 -5 -26 9 -26 -16 -50 -38 -37 -13 7 -17
5 -17 -7 0 -8 9 -15 20 -15 13 0 20 -7 20 -19 0 -26 -18 -37 -26 -17 -9 23
-23 20 -17 -4 3 -11 10 -20 15 -20 18 0 38 -29 38 -54 0 -14 -2 -26 -4 -26 -2
0 -11 -3 -19 -6 -9 -3 -16 3 -20 15 -7 28 -25 27 -20 -1 3 -14 -4 -32 -17 -46
-28 -30 -18 -41 11 -13 20 19 59 29 59 16 0 -2 -16 -29 -35 -59 -33 -52 -90
-106 -112 -106 -5 0 -19 -29 -32 -64 -12 -35 -36 -78 -52 -97 l-30 -34 6 30
c4 22 3 26 -5 15 -5 -8 -10 -23 -10 -32 0 -10 -7 -18 -15 -18 -8 0 -15 -9 -15
-20 0 -11 -5 -20 -11 -20 -6 0 -8 -8 -4 -19 4 -14 -1 -23 -16 -32 -20 -10 -21
-9 -16 12 8 30 -9 49 -43 49 -23 0 -27 -4 -23 -19 3 -12 11 -17 19 -14 8 3 14
1 14 -5 0 -5 10 -22 22 -37 20 -26 22 -26 29 -9 7 17 8 17 8 -3 1 -17 -5 -23
-20 -23 -17 0 -20 -4 -16 -22 4 -14 0 -26 -11 -35 -14 -11 -15 -14 -3 -22 12
-8 13 -20 2 -82 -10 -56 -16 -68 -23 -55 -21 38 -28 79 -15 95 11 14 10 14 -5
2 -10 -7 -18 -19 -18 -26 0 -7 -7 -16 -16 -19 -13 -5 -15 -1 -10 19 4 14 2 25
-2 25 -5 0 -7 51 -5 113 4 89 2 118 -11 142 -19 37 -10 47 15 16 27 -33 34
-20 21 37 -11 51 1 142 20 142 6 0 8 7 5 15 -4 8 -2 17 4 21 6 3 8 11 6 18
-10 26 15 133 40 168 16 23 23 44 19 55 -9 22 14 113 28 113 6 0 16 12 23 26
10 21 10 29 -2 41 -8 8 -19 12 -25 8 -6 -3 -7 1 -4 10 4 10 2 14 -8 10 -8 -3
-14 2 -15 13 -1 13 16 27 58 49 34 18 59 26 60 19 2 -29 28 54 29 92 0 24 4
41 9 37 6 -3 24 15 41 40 17 25 35 45 40 45 6 0 10 6 10 13 0 6 17 19 38 29
46 20 49 20 57 8z m-211 -55 c-9 -22 -34 -27 -34 -6 0 23 8 31 25 24 8 -2 11
-11 9 -18z m4180 -60 c-9 -14 -18 -25 -20 -25 -2 0 2 11 8 25 6 14 15 25 20
25 5 0 1 -11 -8 -25z m-4191 0 c-3 -9 -8 -14 -10 -11 -3 3 -2 9 2 15 9 16 15
13 8 -4z m-159 -99 c-3 -8 -18 -22 -32 -32 -27 -17 -27 -17 2 15 33 35 38 37
30 17z m-64 -80 c0 -3 -4 -8 -10 -11 -5 -3 -10 -1 -10 4 0 6 5 11 10 11 6 0
10 -2 10 -4z m867 -78 c-3 -8 -6 -5 -6 6 -1 11 2 17 5 13 3 -3 4 -12 1 -19z
m142 -70 c13 -29 11 -105 -4 -140 -4 -11 -3 -18 3 -18 6 0 13 8 15 18 3 12 5
10 6 -7 l1 -25 21 22 c11 12 17 27 14 32 -3 6 -1 10 4 10 20 0 12 -27 -16 -54
-18 -18 -29 -23 -34 -15 -4 8 -13 3 -24 -15 l-18 -27 -23 22 c-13 12 -26 30
-30 41 -3 10 -12 18 -20 18 -8 0 -14 8 -14 17 0 9 -3 13 -7 10 -3 -4 -12 5
-20 20 -12 23 -12 28 2 35 8 5 15 15 15 23 0 7 10 25 23 39 32 37 89 34 106
-6z m-917 -10 c-7 -7 -12 -19 -12 -27 0 -11 4 -10 16 5 14 18 15 18 4 -3 -15
-32 -30 -28 -30 8 0 17 4 28 10 24 6 -3 10 -1 10 6 0 7 3 9 7 6 4 -4 1 -13 -5
-19z m1103 -67 c3 -14 -3 -25 -18 -33 -20 -10 -21 -10 -9 5 8 9 11 21 7 27 -6
10 4 35 11 27 3 -2 6 -14 9 -26z m-1128 -13 c-3 -8 -6 -5 -6 6 -1 11 2 17 5
13 3 -3 4 -12 1 -19z m771 -9 c0 -17 -2 -28 -5 -25 -3 3 -12 1 -20 -5 -10 -9
-13 -8 -13 4 0 8 6 18 13 21 10 5 10 7 0 12 -19 9 -16 24 5 24 14 0 19 -8 20
-31z m267 -19 c3 -5 1 -10 -4 -10 -6 0 -11 5 -11 10 0 6 2 10 4 10 3 0 8 -4
11 -10z m558 -165 c-2 -5 -14 -10 -28 -11 -25 -1 -31 6 -18 20 10 10 48 3 46
-9z m-1635 -30 c-3 -3 -9 2 -12 12 -6 14 -5 15 5 6 7 -7 10 -15 7 -18z m1204
3 c-9 -9 -15 -9 -24 0 -9 9 -7 12 12 12 19 0 21 -3 12 -12z m-1219 -22 c3 -8
0 -19 -7 -25 -10 -9 -12 -6 -8 14 5 29 8 31 15 11z m902 -6 c4 -6 -5 -10 -19
-10 -14 0 -26 5 -26 10 0 6 9 10 19 10 11 0 23 -4 26 -10z m339 1 c3 -4 -6
-19 -19 -31 -29 -27 -34 -15 -7 18 20 25 19 25 26 13z m-614 -22 c0 -5 7 -9
15 -9 8 0 15 -7 15 -15 0 -24 -43 -105 -56 -105 -6 0 -19 -15 -28 -32 -15 -32
-16 -32 -22 -10 -5 16 -11 21 -25 17 -11 -4 -19 -2 -19 4 0 6 -7 11 -16 11
-10 0 -14 6 -11 14 8 20 -3 27 -23 16 -15 -8 -17 -6 -13 10 3 11 10 17 16 13
6 -4 8 0 4 10 -3 10 -2 17 4 17 5 0 14 -12 20 -27 8 -22 12 -24 19 -13 5 8 7
24 3 35 -5 18 -4 18 11 6 14 -12 16 -12 11 1 -3 8 1 21 10 28 8 7 15 9 15 6 0
-4 7 -1 15 8 8 8 15 19 15 24 0 6 9 8 20 5 11 -3 20 -9 20 -14z m840 6 c-7 -8
-18 -15 -24 -15 -6 0 -2 7 8 15 25 19 32 19 16 0z m-660 -5 c0 -5 -4 -10 -10
-10 -5 0 -10 5 -10 10 0 6 5 10 10 10 6 0 10 -4 10 -10z m780 0 c0 -5 -5 -10
-11 -10 -5 0 -7 5 -4 10 3 6 8 10 11 10 2 0 4 -4 4 -10z m-230 -4 c0 -3 -4 -8
-10 -11 -5 -3 -10 -1 -10 4 0 6 5 11 10 11 6 0 10 -2 10 -4z m540 0 c0 -3 -4
-8 -10 -11 -5 -3 -10 -1 -10 4 0 6 5 11 10 11 6 0 10 -2 10 -4z m-520 -25 c0
-12 -20 -25 -27 -18 -7 7 6 27 18 27 5 0 9 -4 9 -9z m-60 -11 c0 -5 -9 -10
-19 -10 -11 0 -22 -4 -25 -8 -3 -5 13 -8 34 -8 47 0 51 -4 56 -44 3 -22 0 -30
-9 -27 -6 2 -11 13 -10 23 2 25 -16 35 -41 21 -33 -19 -37 -31 -13 -38 22 -6
22 -6 -3 -16 -49 -21 -75 -34 -56 -28 19 5 46 -10 46 -26 0 -5 -6 -6 -12 -4
-13 5 -123 -53 -116 -61 7 -6 68 19 68 28 0 4 7 8 17 8 13 0 11 -5 -8 -23 -13
-13 -31 -23 -39 -22 -8 0 -14 -5 -13 -11 1 -7 -9 -14 -22 -17 -17 -3 -25 0
-25 10 0 14 -46 13 -82 -2 -10 -4 -18 -3 -18 2 0 14 35 44 43 37 3 -4 20 8 37
25 17 17 36 31 41 31 14 0 69 59 69 74 0 18 69 96 86 96 8 0 14 -4 14 -10z
m-140 -15 c0 -9 6 -12 15 -9 22 9 18 -10 -5 -31 -12 -10 -19 -24 -16 -31 3 -9
-4 -11 -24 -9 -20 3 -33 -1 -39 -13 -5 -9 -13 -13 -17 -9 -4 4 -2 13 4 19 7 7
12 20 12 30 0 11 5 15 15 12 11 -4 19 3 26 25 11 32 29 42 29 16z m217 -11
c-3 -3 -12 -4 -19 -1 -8 3 -5 6 6 6 11 1 17 -2 13 -5z m683 -44 c0 -5 -4 -11
-8 -14 -10 -6 -43 30 -35 38 8 7 43 -12 43 -24z m-1410 5 c0 -8 -4 -15 -9 -15
-13 0 -22 16 -14 24 11 11 23 6 23 -9z m1200 -5 c-10 -19 -30 -28 -30 -14 0 6
30 33 38 34 1 0 -2 -9 -8 -20z m227 -2 c-3 -8 -6 -5 -6 6 -1 11 2 17 5 13 3
-3 4 -12 1 -19z m-210 -20 c-3 -8 -6 -5 -6 6 -1 11 2 17 5 13 3 -3 4 -12 1
-19z m-1911 -15 c-10 -10 -19 5 -10 18 6 11 8 11 12 0 2 -7 1 -15 -2 -18z
m-53 -13 c-3 -11 -7 -20 -9 -20 -2 0 -4 9 -4 20 0 11 4 20 9 20 5 0 7 -9 4
-20z m1947 16 c0 -18 -22 -56 -29 -52 -5 3 -11 -4 -14 -15 -5 -20 -27 -18 -27
2 0 6 4 8 8 5 5 -3 15 10 22 29 8 19 20 35 27 35 7 0 13 -2 13 -4z m207 -31
c6 -14 8 -27 4 -30 -7 -4 -31 36 -31 50 0 14 17 1 27 -20z m-2090 -7 c-3 -8
-6 -5 -6 6 -1 11 2 17 5 13 3 -3 4 -12 1 -19z m1110 -10 c-3 -8 -6 -5 -6 6 -1
11 2 17 5 13 3 -3 4 -12 1 -19z m943 12 c0 -5 -2 -10 -4 -10 -3 0 -8 5 -11 10
-3 6 -1 10 4 10 6 0 11 -4 11 -10z m-1250 -10 c0 -5 -5 -10 -11 -10 -5 0 -7 5
-4 10 3 6 8 10 11 10 2 0 4 -4 4 -10z m57 -12 c-3 -8 -6 -5 -6 6 -1 11 2 17 5
13 3 -3 4 -12 1 -19z m-194 -8 c-3 -11 -9 -20 -13 -20 -5 0 -6 9 -3 20 3 11 9
20 13 20 5 0 6 -9 3 -20z m282 4 c6 0 19 4 29 9 16 8 18 6 13 -8 -4 -9 -7 -21
-7 -27 0 -5 -6 -8 -12 -5 -7 2 -17 -2 -23 -9 -5 -7 -22 -16 -37 -20 -24 -5
-28 -3 -28 15 0 12 4 21 9 21 5 0 11 9 14 21 4 14 10 18 19 13 7 -5 18 -9 23
-10z m645 12 c0 -3 -4 -8 -10 -11 -5 -3 -10 -1 -10 4 0 6 5 11 10 11 6 0 10
-2 10 -4z m-570 -21 c-7 -9 -15 -13 -17 -11 -7 7 7 26 19 26 6 0 6 -6 -2 -15z
m870 5 c0 -5 -4 -10 -10 -10 -5 0 -10 5 -10 10 0 6 5 10 10 10 6 0 10 -4 10
-10z m-329 -43 c-1 -4 -3 -6 -4 -4 -2 1 -11 -4 -21 -12 -22 -19 -31 -8 -10 13
16 16 36 18 35 3z m-544 -22 c-3 -25 -39 -60 -50 -48 -6 5 40 73 50 73 2 0 2
-11 0 -25z m-394 -17 c7 -25 3 -33 -12 -23 -13 8 -15 45 -2 45 5 0 11 -10 14
-22z m-523 8 c0 -3 -4 -8 -10 -11 -5 -3 -10 -1 -10 4 0 6 5 11 10 11 6 0 10
-2 10 -4z m1790 -6 c0 -5 -7 -10 -15 -10 -8 0 -15 5 -15 10 0 6 7 10 15 10 8
0 15 -4 15 -10z m-2123 -22 c-3 -8 -6 -5 -6 6 -1 11 2 17 5 13 3 -3 4 -12 1
-19z m1325 0 c-7 -7 -12 -8 -12 -2 0 14 12 26 19 19 2 -3 -1 -11 -7 -17z m468
8 c0 -3 -4 -8 -10 -11 -5 -3 -10 -1 -10 4 0 6 5 11 10 11 6 0 10 -2 10 -4z
m-863 -28 c-3 -8 -6 -5 -6 6 -1 11 2 17 5 13 3 -3 4 -12 1 -19z m429 -13 c-9
-9 -16 -24 -17 -33 -1 -11 -3 -9 -7 6 l-7 22 -13 -21 c-8 -12 -9 -18 -3 -14 6
3 11 2 11 -4 0 -6 -11 -13 -25 -17 -13 -3 -24 -9 -23 -13 2 -18 -4 -22 -17
-11 -8 7 -15 21 -15 31 0 29 -17 23 -62 -21 -30 -28 -37 -40 -25 -40 9 0 17 5
17 10 0 18 18 10 23 -10 3 -12 14 -20 26 -20 16 0 20 -6 19 -25 l-2 -26 -17
22 c-9 12 -28 22 -45 23 -16 1 -35 5 -41 9 -7 5 -19 5 -25 2 -7 -4 -5 0 5 8 9
8 17 17 17 21 0 12 43 66 53 66 4 0 23 11 40 24 22 17 48 26 80 27 26 2 47 7
47 13 0 6 4 6 11 -1 9 -9 8 -16 -5 -28z m-213 -6 c-4 -14 -8 -17 -13 -9 -5 9
-9 9 -14 1 -4 -6 -14 -11 -22 -11 -20 0 -8 19 20 30 32 13 35 12 29 -11z m683
-13 c18 -18 18 -27 0 -20 -7 3 -16 -2 -19 -10 -9 -23 -38 -21 -31 2 5 14 3 14
-10 -2 -9 -11 -16 -15 -16 -9 0 6 7 16 15 23 12 10 16 9 21 -5 6 -16 8 -16 16
-1 5 9 6 21 3 26 -9 15 4 12 21 -4z m135 -7 c8 -16 8 -20 -1 -14 -7 4 -11 1
-9 -6 3 -25 -1 -39 -11 -39 -5 0 -10 7 -10 15 0 8 -5 15 -10 15 -6 0 -3 11 6
25 20 30 20 30 35 4z m-1079 -21 c-7 -7 -12 -8 -12 -2 0 14 12 26 19 19 2 -3
-1 -11 -7 -17z m1208 -4 c0 -8 -4 -12 -10 -9 -5 3 -10 10 -10 16 0 5 5 9 10 9
6 0 10 -7 10 -16z m227 9 c-12 -3 -16 -10 -12 -21 5 -13 3 -14 -6 -5 -14 14
-3 33 19 32 15 -1 14 -2 -1 -6z m-1277 -6 c0 -2 -9 -12 -20 -22 -24 -21 -27
-14 -4 9 15 15 24 20 24 13z m1210 -29 c-1 -28 -2 -30 -11 -15 -6 10 -8 25 -5
33 9 24 16 16 16 -18z m-1340 18 c0 -2 -18 -15 -40 -30 -28 -18 -38 -21 -33
-10 3 9 20 22 37 30 35 15 36 15 36 10z m-104 -83 c-10 -10 -19 5 -10 18 6 11
8 11 12 0 2 -7 1 -15 -2 -18z m-46 -18 c-7 -9 -15 -13 -17 -11 -7 7 7 26 19
26 6 0 6 -6 -2 -15z m-54 -14 c0 -10 -9 -24 -19 -30 -17 -11 -17 -10 -2 19 18
35 21 37 21 11z m424 6 c0 -7 -9 -13 -20 -14 -22 -2 -27 12 -7 20 21 9 27 8
27 -6z m937 -9 c-3 -8 -6 -5 -6 6 -1 11 2 17 5 13 3 -3 4 -12 1 -19z m-1015
-30 c-7 -7 -12 -8 -12 -2 0 14 12 26 19 19 2 -3 -1 -11 -7 -17z m68 2 c0 -5
-5 -10 -11 -10 -5 0 -7 5 -4 10 3 6 8 10 11 10 2 0 4 -4 4 -10z m-385 -32
c-11 -6 -29 -18 -40 -27 -14 -11 -12 -7 4 12 14 15 32 27 40 27 12 -1 11 -3
-4 -12z m414 -12 c-2 -2 -15 -7 -29 -11 -25 -8 -25 -8 -6 14 13 14 23 18 30
11 5 -5 8 -11 5 -14z m899 -7 c-3 -8 -7 -3 -11 10 -4 17 -3 21 5 13 5 -5 8
-16 6 -23z m-1295 -19 c13 -1 -22 -30 -35 -30 -4 0 -8 9 -8 21 0 15 4 19 16
15 9 -3 21 -6 27 -6z m417 0 c0 -5 -5 -10 -11 -10 -5 0 -7 5 -4 10 3 6 8 10
11 10 2 0 4 -4 4 -10z m-522 -40 c-7 -10 -14 -17 -17 -15 -4 4 18 35 25 35 2
0 -1 -9 -8 -20z m481 -2 c0 -7 -4 -22 -9 -33 -7 -17 -9 -15 -9 13 -1 17 4 32
9 32 6 0 10 -6 9 -12z m-456 -41 c6 -15 -36 -17 -50 -3 -4 5 -3 7 2 3 6 -3 17
-2 25 4 19 11 17 11 23 -4z m389 -9 c-15 -15 -16 -32 -2 -23 6 3 10 3 10 -2 0
-9 -51 -35 -57 -29 -4 4 49 66 56 66 3 0 0 -5 -7 -12z m-174 -27 c10 -6 10
-10 -2 -20 -17 -14 -36 -7 -36 15 0 15 18 18 38 5z m1144 -33 c-7 -7 -12 -8
-12 -2 0 14 12 26 19 19 2 -3 -1 -11 -7 -17z m-1252 -18 c0 -5 -5 -10 -11 -10
-5 0 -7 5 -4 10 3 6 8 10 11 10 2 0 4 -4 4 -10z m180 -20 c0 -5 -4 -10 -10
-10 -5 0 -10 5 -10 10 0 6 5 10 10 10 6 0 10 -4 10 -10z m2028 -31 c-3 -8 -7
-3 -11 10 -4 17 -3 21 5 13 5 -5 8 -16 6 -23z m99 9 c-3 -8 -6 -5 -6 6 -1 11
2 17 5 13 3 -3 4 -12 1 -19z m-2452 2 c-3 -5 -12 -10 -18 -10 -7 0 -6 4 3 10
19 12 23 12 15 0z m225 -21 c0 -6 -4 -7 -10 -4 -5 3 -10 11 -10 16 0 6 5 7 10
4 6 -3 10 -11 10 -16z m2067 -21 c-3 -8 -6 -5 -6 6 -1 11 2 17 5 13 3 -3 4
-12 1 -19z m-2212 -28 c5 1 11 -3 13 -9 2 -6 -6 -11 -18 -11 -17 0 -20 -4 -15
-19 5 -17 1 -20 -25 -19 -36 1 -37 6 -5 40 14 15 25 35 26 45 1 13 3 12 7 -5
4 -13 11 -23 17 -22z m2725 5 c14 -19 14 -19 -2 -6 -10 7 -18 18 -18 24 0 6 1
8 3 6 1 -2 9 -13 17 -24z m-2620 -1 c0 -8 -4 -12 -10 -9 -5 3 -10 10 -10 16 0
5 5 9 10 9 6 0 10 -7 10 -16z m2050 -24 c0 -5 -5 -10 -11 -10 -5 0 -7 5 -4 10
3 6 8 10 11 10 2 0 4 -4 4 -10z m-901 -71 c-8 -5 -20 -9 -28 -9 -11 0 -11 3
-1 15 7 8 16 12 21 9 5 -3 9 1 10 8 0 10 2 10 6 -1 3 -7 -1 -17 -8 -22z
m-1531 -17 c2 -7 -3 -12 -12 -12 -9 0 -16 7 -16 16 0 17 22 14 28 -4z m-248
-13 c0 -5 -7 -9 -15 -9 -15 0 -20 12 -9 23 8 8 24 -1 24 -14z m2585 -19 c-3
-5 -12 -10 -18 -10 -7 0 -6 4 3 10 19 12 23 12 15 0z m-95 -10 c0 -5 -4 -10
-10 -10 -5 0 -10 5 -10 10 0 6 5 10 10 10 6 0 10 -4 10 -10z m-2500 -42 c0 -5
-4 -8 -10 -8 -5 0 -10 10 -10 23 0 18 2 19 10 7 5 -8 10 -18 10 -22z m580 -27
c0 -5 -7 -12 -16 -15 -14 -5 -15 -4 -4 9 14 17 20 19 20 6z m-570 -5 c0 -2 -8
-10 -17 -17 -16 -13 -17 -12 -4 4 13 16 21 21 21 13z m2955 -6 c3 -5 1 -10 -4
-10 -6 0 -11 5 -11 10 0 6 2 10 4 10 3 0 8 -4 11 -10z m-509 -37 c-11 -11 -19
6 -11 24 8 17 8 17 12 0 3 -10 2 -21 -1 -24z m-2336 -73 c0 -20 -2 -22 -10
-10 -5 8 -10 26 -10 40 0 20 2 22 10 10 5 -8 10 -26 10 -40z m-30 10 c0 -5 -2
-10 -4 -10 -3 0 -8 5 -11 10 -3 6 -1 10 4 10 6 0 11 -4 11 -10z m2734 -46 c3
-8 2 -12 -4 -9 -6 3 -10 10 -10 16 0 14 7 11 14 -7z m-2444 -20 c0 -9 -5 -14
-12 -12 -18 6 -21 28 -4 28 9 0 16 -7 16 -16z m2070 -14 c0 -5 -4 -10 -10 -10
-5 0 -10 5 -10 10 0 6 5 10 10 10 6 0 10 -4 10 -10z m-4 -67 c-10 -10 -19 5
-10 18 6 11 8 11 12 0 2 -7 1 -15 -2 -18z m-2436 -24 c0 -11 -4 -18 -10 -14
-5 3 -7 12 -3 20 7 21 13 19 13 -6z m2330 12 c0 -15 -20 -24 -21 -9 0 9 -2 10
-5 1 -3 -7 -12 -9 -20 -6 -25 9 -15 23 16 23 17 0 30 -4 30 -9z m91 -28 c-12
-20 -14 -14 -5 12 4 9 9 14 11 11 3 -2 0 -13 -6 -23z m49 -49 c0 -14 -4 -23
-9 -20 -5 3 -8 17 -8 31 0 13 3 22 8 19 5 -3 9 -16 9 -30z m215 -74 c3 -5 1
-10 -4 -10 -6 0 -11 5 -11 10 0 6 2 10 4 10 3 0 8 -4 11 -10z m-295 -10 c0 -5
-4 -10 -10 -10 -5 0 -10 5 -10 10 0 6 5 10 10 10 6 0 10 -4 10 -10z m344 -16
c5 -14 4 -15 -9 -4 -17 14 -19 20 -6 20 5 0 12 -7 15 -16z m-1304 -16 c0 -19
-2 -20 -10 -8 -13 19 -13 30 0 30 6 0 10 -10 10 -22z m1257 -110 c-3 -8 -6 -5
-6 6 -1 11 2 17 5 13 3 -3 4 -12 1 -19z m-147 -44 c0 -8 -5 -12 -10 -9 -6 4
-8 11 -5 16 9 14 15 11 15 -7z m-370 -25 c0 -11 -4 -18 -10 -14 -5 3 -7 12 -3
20 7 21 13 19 13 -6z m350 -14 c7 -8 8 -15 2 -15 -5 0 -15 7 -22 15 -7 8 -8
15 -2 15 5 0 15 -7 22 -15z m-40 -15 c0 -5 -7 -7 -15 -4 -8 4 -15 8 -15 10 0
2 7 4 15 4 8 0 15 -4 15 -10z m-510 -105 c0 -8 -4 -15 -10 -15 -5 0 -10 7 -10
15 0 8 5 15 10 15 6 0 10 -7 10 -15z m37 9 c-3 -4 -2 -16 4 -26 9 -16 8 -19
-3 -16 -17 6 -23 48 -7 48 7 0 9 -3 6 -6z m268 -124 c3 -5 1 -10 -4 -10 -6 0
-11 5 -11 10 0 6 2 10 4 10 3 0 8 -4 11 -10z m395 -71 c0 -6 -4 -7 -10 -4 -5
3 -10 11 -10 16 0 6 5 7 10 4 6 -3 10 -11 10 -16z m-720 -214 c14 -19 14 -19
-2 -6 -10 7 -18 18 -18 24 0 6 1 8 3 6 1 -2 9 -13 17 -24z m1764 -11 c3 -8 2
-12 -4 -9 -6 3 -10 10 -10 16 0 14 7 11 14 -7z m-1834 -26 c0 -11 -28 -10 -35
1 -3 6 4 9 15 8 11 -1 20 -5 20 -9z m-1170 -118 c0 -5 -4 -10 -10 -10 -5 0
-10 5 -10 10 0 6 5 10 10 10 6 0 10 -4 10 -10z m2065 -90 c3 -5 1 -10 -4 -10
-6 0 -11 5 -11 10 0 6 2 10 4 10 3 0 8 -4 11 -10z m-865 -1241 c0 -5 -4 -9
-10 -9 -5 0 -10 7 -10 16 0 8 5 12 10 9 6 -3 10 -10 10 -16z"/>
<path d="M1475 6880 c-3 -5 -1 -10 4 -10 6 0 11 5 11 10 0 6 -2 10 -4 10 -3 0
-8 -4 -11 -10z"/>
<path d="M1920 5850 c0 -5 5 -10 10 -10 6 0 10 5 10 10 0 6 -4 10 -10 10 -5 0
-10 -4 -10 -10z"/>
<path d="M1830 5874 c0 -8 5 -12 10 -9 6 3 10 10 10 16 0 5 -4 9 -10 9 -5 0
-10 -7 -10 -16z"/>
<path d="M1726 5631 c-4 -7 -5 -15 -2 -18 9 -9 19 4 14 18 -4 11 -6 11 -12 0z"/>
<path d="M3170 8019 c0 -5 5 -7 10 -4 6 3 10 8 10 11 0 2 -4 4 -10 4 -5 0 -10
-5 -10 -11z"/>
<path d="M3740 7965 c-1 -5 -2 -14 -1 -18 1 -5 -3 -6 -8 -3 -5 4 -12 2 -16 -4
-3 -5 -1 -11 4 -11 36 -4 45 -2 48 11 4 13 3 13 -5 1 -8 -11 -11 -9 -15 10 -2
13 -5 20 -7 14z"/>
<path d="M3230 7940 c-8 -5 -12 -11 -9 -14 3 -3 14 1 25 9 21 16 8 20 -16 5z"/>
<path d="M3622 7928 c-14 -14 -16 -28 -3 -28 9 0 24 30 18 36 -2 2 -9 -2 -15
-8z"/>
<path d="M2645 7866 c-18 -13 -17 -14 13 -13 18 1 31 6 29 11 -5 16 -22 17
-42 2z"/>
<path d="M3026 7865 c-11 -8 -17 -18 -13 -21 3 -3 16 3 28 15 26 24 14 28 -15
6z"/>
<path d="M3745 7870 c-3 -5 1 -10 9 -10 9 0 16 5 16 10 0 6 -4 10 -9 10 -6 0
-13 -4 -16 -10z"/>
<path d="M3063 7816 c-17 -34 -18 -43 -7 -43 8 0 13 6 10 13 -2 6 2 21 11 33
8 12 13 25 11 30 -2 5 -13 -10 -25 -33z"/>
<path d="M3047 7836 c-10 -8 -14 -16 -10 -19 5 -3 14 3 21 14 14 22 13 23 -11
5z"/>
<path d="M3830 7840 c0 -5 4 -10 9 -10 6 0 13 5 16 10 3 6 -1 10 -9 10 -9 0
-16 -4 -16 -10z"/>
<path d="M2660 7829 c0 -5 5 -7 10 -4 6 3 10 8 10 11 0 2 -4 4 -10 4 -5 0 -10
-5 -10 -11z"/>
<path d="M2848 7829 c-10 -5 -18 -19 -18 -30 0 -11 4 -18 10 -14 5 3 6 13 3
22 -5 12 -2 15 10 10 11 -4 17 -1 17 8 0 17 0 17 -22 4z"/>
<path d="M3900 7821 c0 -7 -4 -9 -10 -6 -16 10 -12 -7 7 -27 13 -15 14 -23 4
-44 -7 -16 -17 -24 -26 -21 -7 3 -19 -1 -26 -9 -10 -12 -9 -13 5 -8 10 4 18 0
22 -10 3 -9 14 -16 24 -16 10 0 20 -6 23 -14 4 -10 0 -14 -14 -13 -10 1 -19 5
-19 9 0 4 -7 5 -16 1 -9 -3 -13 -12 -9 -21 7 -20 -12 -32 -51 -32 -24 0 -31
-4 -30 -17 1 -12 -6 -18 -19 -17 -14 0 -20 -7 -21 -23 -1 -13 2 -23 7 -23 5 0
9 -7 9 -15 0 -8 7 -15 15 -15 8 0 12 -6 9 -14 -4 -11 0 -13 15 -9 17 4 21 1
21 -18 1 -21 2 -22 11 -6 5 9 22 17 36 17 21 0 24 -2 13 -15 -7 -8 -19 -15
-26 -15 -8 0 -14 -7 -14 -16 0 -8 -4 -12 -10 -9 -6 3 -7 -1 -4 -9 3 -9 1 -16
-5 -16 -6 0 -11 -5 -11 -11 0 -8 4 -8 13 -1 7 6 25 12 39 14 15 2 31 8 35 13
4 4 2 5 -4 1 -18 -10 -16 10 3 28 24 24 47 21 39 -6 -3 -13 -3 -18 2 -13 14
17 35 17 53 0 10 -9 19 -12 21 -6 3 7 9 7 19 0 13 -8 13 -11 -2 -23 -18 -14
-14 -26 9 -26 7 0 13 9 13 21 0 11 5 17 10 14 6 -3 10 -17 10 -31 l0 -25 28
21 27 22 3 -21 c4 -27 22 -28 22 -1 0 14 5 18 16 13 13 -5 15 -1 10 18 -3 13
-3 18 0 11 3 -6 9 -10 14 -7 5 3 30 -6 56 -20 60 -32 69 -25 15 12 -22 15 -40
34 -41 41 0 7 -4 11 -9 8 -13 -8 -23 41 -16 75 4 19 3 29 -5 29 -6 0 -10 6 -8
12 5 13 2 16 -39 51 -20 17 -24 18 -44 4 l-22 -16 32 -31 c17 -17 31 -32 31
-34 0 -9 -58 -3 -87 9 -28 12 -34 19 -30 36 3 12 0 22 -9 26 -9 3 -14 20 -14
49 0 30 -4 44 -13 44 -26 0 -55 43 -51 76 2 22 -3 37 -16 49 -13 11 -20 14
-20 6z m-8 -203 c-7 -7 -12 -8 -12 -2 0 14 12 26 19 19 2 -3 -1 -11 -7 -17z
m48 -40 c0 -19 -2 -20 -11 -8 -9 12 -10 10 -6 -8 6 -25 -1 -52 -12 -52 -14 0
-10 54 6 72 21 23 23 23 23 -4z m50 -25 c-1 -9 -50 -47 -50 -39 0 3 8 15 17
26 18 20 33 26 33 13z m105 -83 c3 -5 1 -10 -4 -10 -6 0 -11 5 -11 10 0 6 2
10 4 10 3 0 8 -4 11 -10z m12 -67 c-9 -9 -20 -13 -24 -9 -4 4 -1 11 7 16 25
16 35 11 17 -7z"/>
<path d="M4120 7820 c0 -6 7 -10 15 -10 8 0 15 2 15 4 0 2 -7 6 -15 10 -8 3
-15 1 -15 -4z"/>
<path d="M3013 7808 c3 -9 -1 -22 -9 -29 -8 -6 -12 -14 -10 -16 2 -3 13 4 23
14 17 17 18 21 4 33 -13 12 -14 12 -8 -2z"/>
<path d="M3735 7810 c-3 -5 -2 -10 4 -10 5 0 11 -21 13 -47 3 -41 7 -49 36
-66 25 -15 36 -17 45 -8 8 8 6 11 -9 11 -35 0 -64 36 -64 80 0 39 -13 60 -25
40z"/>
<path d="M2175 7800 c-3 -5 -2 -10 4 -10 5 0 13 5 16 10 3 6 2 10 -4 10 -5 0
-13 -4 -16 -10z"/>
<path d="M4026 7786 c3 -9 11 -16 16 -16 13 0 5 23 -10 28 -7 2 -10 -2 -6 -12z"/>
<path d="M3220 7780 c0 -5 5 -10 10 -10 6 0 10 5 10 10 0 6 -4 10 -10 10 -5 0
-10 -4 -10 -10z"/>
<path d="M2916 7763 c-6 -14 -5 -15 5 -6 7 7 10 15 7 18 -3 3 -9 -2 -12 -12z"/>
<path d="M3050 7750 c-9 -6 -10 -10 -3 -10 6 0 15 5 18 10 8 12 4 12 -15 0z"/>
<path d="M3994 7748 c3 -7 9 -21 12 -30 9 -26 24 -22 24 6 0 13 -7 27 -16 30
-23 9 -26 8 -20 -6z"/>
<path d="M2903 7715 c2 -5 10 -10 17 -10 7 0 15 5 17 10 2 6 -6 11 -17 11 -11
0 -19 -5 -17 -11z"/>
<path d="M3030 7710 c0 -5 5 -10 10 -10 6 0 10 5 10 10 0 6 -4 10 -10 10 -5 0
-10 -4 -10 -10z"/>
<path d="M4193 7681 c-1 -14 4 -17 23 -13 27 5 27 5 -1 20 -17 9 -21 7 -22 -7z"/>
<path d="M4160 7670 c0 -5 5 -10 11 -10 5 0 7 5 4 10 -3 6 -8 10 -11 10 -2 0
-4 -4 -4 -10z"/>
<path d="M2180 7666 c0 -2 7 -6 15 -10 8 -3 15 -1 15 4 0 6 -7 10 -15 10 -8 0
-15 -2 -15 -4z"/>
<path d="M2353 7648 c-26 -13 -29 -30 -9 -47 10 -8 16 -9 21 -1 3 5 1 10 -4
10 -20 0 -11 27 12 38 12 6 18 11 12 11 -5 0 -20 -5 -32 -11z"/>
<path d="M4500 7635 c-11 -13 -9 -15 13 -13 16 1 23 7 20 15 -7 17 -18 16 -33
-2z"/>
<path d="M4407 7583 c-4 -3 -7 -13 -7 -22 1 -13 2 -13 11 2 13 21 30 13 22
-11 -5 -13 -3 -15 7 -5 7 6 10 19 7 27 -7 16 -28 21 -40 9z"/>
<path d="M2735 7550 c-3 -5 -1 -10 4 -10 6 0 11 5 11 10 0 6 -2 10 -4 10 -3 0
-8 -4 -11 -10z"/>
<path d="M2766 7524 c-9 -8 -16 -12 -16 -8 0 4 -10 -5 -21 -20 -23 -29 -19
-47 5 -27 12 10 14 8 10 -11 -4 -22 -4 -22 7 2 42 87 43 92 15 64z"/>
<path d="M3131 7514 c0 -11 3 -14 6 -6 3 7 2 16 -1 19 -3 4 -6 -2 -5 -13z"/>
<path d="M3007 7513 c-4 -3 -7 -11 -7 -17 0 -6 5 -5 12 2 6 6 9 14 7 17 -3 3
-9 2 -12 -2z"/>
<path d="M3087 7514 c-4 -4 -7 -17 -7 -28 1 -19 1 -20 11 -3 11 19 8 43 -4 31z"/>
<path d="M3171 7504 c0 -11 3 -14 6 -6 3 7 2 16 -1 19 -3 4 -6 -2 -5 -13z"/>
<path d="M4590 7510 c0 -5 -9 -10 -19 -10 -26 0 -35 -16 -14 -24 10 -4 23 1
35 13 20 23 23 31 8 31 -5 0 -10 -4 -10 -10z"/>
<path d="M4640 7491 c0 -5 5 -13 10 -16 6 -3 10 -2 10 4 0 5 -4 13 -10 16 -5
3 -10 2 -10 -4z"/>
<path d="M2645 7480 c-3 -5 -2 -10 4 -10 5 0 13 5 16 10 3 6 2 10 -4 10 -5 0
-13 -4 -16 -10z"/>
<path d="M4266 7473 c-12 -30 -6 -43 19 -43 15 0 24 -5 23 -12 -2 -8 9 -14 25
-16 15 -2 27 1 27 7 0 6 -4 11 -10 11 -5 0 -10 5 -10 11 0 5 4 8 9 5 12 -8 41
3 41 15 0 27 -114 48 -124 22z"/>
<path d="M2176 7445 c-15 -14 -33 -25 -40 -25 -8 0 -16 -7 -20 -15 -3 -9 0
-15 9 -15 8 0 15 5 15 10 0 6 6 10 13 10 16 0 63 47 55 55 -3 3 -17 -6 -32
-20z"/>
<path d="M2250 7450 c-9 -6 -10 -10 -3 -10 6 0 15 5 18 10 8 12 4 12 -15 0z"/>
<path d="M2773 7449 c-6 -6 -9 -17 -7 -23 3 -7 -9 -11 -30 -12 -26 0 -33 3
-28 14 3 10 1 13 -6 8 -7 -4 -12 -2 -12 6 0 8 -5 6 -11 -5 -6 -9 -14 -15 -19
-12 -5 3 -12 0 -16 -6 -5 -8 -9 -8 -14 1 -4 7 -13 9 -19 6 -8 -5 -8 -10 1 -19
13 -15 50 -17 59 -5 3 5 17 4 32 -1 14 -6 35 -8 46 -6 15 3 21 -1 21 -13 1
-16 1 -16 11 1 14 25 28 21 35 -10 6 -24 8 -25 14 -7 7 18 14 19 72 14 88 -7
98 -4 98 31 0 28 -19 43 -21 17 -1 -7 -5 -2 -9 12 l-8 25 -1 -27 c-1 -16 -6
-28 -12 -28 -6 0 -8 10 -5 23 l6 22 -11 -22 c-8 -14 -21 -23 -36 -23 -16 0
-22 4 -17 12 5 8 2 9 -10 5 -10 -4 -24 -7 -32 -7 -9 0 -13 -5 -9 -12 4 -7 -1
-4 -10 7 -9 11 -23 19 -30 17 -10 -2 -13 3 -9 13 7 18 2 19 -13 4z"/>
<path d="M3786 7451 c-3 -5 1 -11 9 -15 9 -3 15 0 15 9 0 16 -16 20 -24 6z"/>
<path d="M3047 7437 c-3 -8 1 -14 8 -14 7 0 11 6 8 14 -3 7 -6 13 -8 13 -2 0
-5 -6 -8 -13z"/>
<path d="M3736 7414 c-9 -8 -16 -25 -15 -37 1 -20 2 -20 9 3 4 14 8 18 9 9 1
-11 10 -16 28 -15 35 1 38 17 8 38 -21 16 -25 16 -39 2z m43 -18 c10 -12 8
-13 -8 -9 -12 3 -21 9 -21 14 0 14 16 11 29 -5z"/>
<path d="M4380 7415 c0 -8 7 -15 15 -15 8 0 15 4 15 9 0 5 -7 11 -15 15 -9 3
-15 0 -15 -9z"/>
<path d="M2215 7396 c-31 -11 -54 -33 -54 -51 0 -5 5 -3 12 6 7 9 30 25 52 37
43 23 38 27 -10 8z"/>
<path d="M3090 7403 c0 -6 -3 -20 -7 -30 -7 -17 -6 -17 11 0 14 14 16 21 7 30
-8 8 -11 8 -11 0z"/>
<path d="M3151 7383 c0 -5 13 -18 30 -31 33 -26 40 -13 9 18 -20 20 -40 27
-39 13z"/>
<path d="M4380 7379 c0 -5 5 -7 10 -4 6 3 10 8 10 11 0 2 -4 4 -10 4 -5 0 -10
-5 -10 -11z"/>
<path d="M3846 7354 c-4 -10 1 -18 13 -21 11 -3 22 -12 24 -22 3 -11 5 -9 6 7
1 16 -5 22 -19 22 -13 0 -18 5 -14 15 4 8 4 15 1 15 -3 0 -8 -7 -11 -16z"/>
<path d="M4246 7351 c-3 -5 1 -11 9 -15 8 -3 15 -1 15 4 0 13 -18 22 -24 11z"/>
<path d="M3780 7335 c0 -7 -5 -17 -12 -21 -7 -5 -9 -2 -6 8 5 13 3 14 -18 4
-13 -6 -24 -15 -24 -19 0 -12 54 -77 64 -77 5 0 2 7 -5 17 -13 15 -11 16 16 9
122 -28 145 -29 145 -5 0 8 -4 8 -12 2 -15 -12 -31 -10 -85 8 -21 7 -44 12
-50 11 -7 -2 -13 6 -13 18 0 11 4 20 9 20 16 0 20 28 5 34 -8 3 -14 -1 -14 -9z
m-10 -70 c0 -5 -5 -3 -10 5 -5 8 -10 20 -10 25 0 6 5 3 10 -5 5 -8 10 -19 10
-25z"/>
<path d="M4000 7342 c0 -5 7 -9 15 -9 8 0 12 4 9 9 -3 4 -9 8 -15 8 -5 0 -9
-4 -9 -8z"/>
<path d="M1871 7323 c-7 -8 -10 -17 -7 -20 9 -9 29 13 25 25 -2 6 -10 3 -18
-5z"/>
<path d="M3217 7319 c-4 -16 -3 -18 9 -8 16 13 19 29 5 29 -5 0 -11 -9 -14
-21z"/>
<path d="M2633 7302 c-8 -32 4 -40 17 -11 9 21 10 21 6 2 -2 -15 2 -23 15 -26
14 -4 19 -14 19 -36 0 -35 26 -53 41 -30 12 19 11 39 -1 39 -5 0 -7 -7 -4 -15
4 -8 2 -15 -4 -15 -16 0 -26 61 -12 70 9 6 9 9 -1 16 -7 4 -14 3 -17 -4 -2 -7
-8 -9 -14 -6 -5 4 -3 13 7 24 14 16 14 17 -15 16 -23 -1 -32 -7 -37 -24z"/>
<path d="M2905 7318 c-10 -24 -2 -38 12 -23 6 7 8 18 3 26 -7 11 -10 10 -15
-3z"/>
<path d="M2950 7320 c0 -5 7 -7 15 -4 8 4 15 8 15 10 0 2 -7 4 -15 4 -8 0 -15
-4 -15 -10z"/>
<path d="M3100 7320 c0 -5 5 -10 11 -10 5 0 7 5 4 10 -3 6 -8 10 -11 10 -2 0
-4 -4 -4 -10z"/>
<path d="M2741 7311 c-9 -6 -10 -11 -3 -15 6 -4 9 -13 5 -21 -6 -16 12 -21 21
-6 11 17 -8 51 -23 42z"/>
<path d="M2870 7290 c-8 -5 -12 -12 -9 -15 4 -3 12 1 19 10 14 17 11 19 -10 5z"/>
<path d="M3650 7280 c0 -5 5 -10 10 -10 6 0 10 5 10 10 0 6 -4 10 -10 10 -5 0
-10 -4 -10 -10z"/>
<path d="M4560 7280 c0 -5 5 -10 10 -10 6 0 10 5 10 10 0 6 -4 10 -10 10 -5 0
-10 -4 -10 -10z"/>
<path d="M2815 7269 c-4 -6 -5 -12 -2 -15 2 -3 7 2 10 11 7 17 1 20 -8 4z"/>
<path d="M2957 7213 c-5 -7 -3 -22 3 -33 7 -13 7 -20 0 -20 -5 0 -10 -4 -10
-10 0 -5 7 -10 15 -10 16 0 18 18 6 60 -5 17 -9 21 -14 13z"/>
<path d="M3615 7210 c3 -5 8 -10 11 -10 2 0 4 5 4 10 0 6 -5 10 -11 10 -5 0
-7 -4 -4 -10z"/>
<path d="M2291 7198 c0 -9 -9 -22 -18 -27 -10 -6 -12 -11 -5 -11 6 0 12 -9 12
-19 0 -14 5 -18 20 -14 32 8 45 30 21 38 -11 3 -22 16 -24 28 -3 14 -5 16 -6
5z"/>
<path d="M2991 7194 c0 -11 3 -14 6 -6 3 7 2 16 -1 19 -3 4 -6 -2 -5 -13z"/>
<path d="M2670 7179 c0 -5 5 -7 10 -4 6 3 14 -4 18 -16 6 -15 11 -19 16 -10 4
6 2 18 -4 26 -14 17 -40 20 -40 4z"/>
<path d="M4806 7165 c9 -14 20 -22 25 -19 15 9 10 20 -16 32 -25 12 -25 12 -9
-13z"/>
<path d="M2750 7159 c-7 -11 -9 -23 -6 -26 3 -3 9 2 12 12 6 15 9 13 19 -11
10 -24 9 -31 -4 -41 -14 -10 -13 -12 7 -10 17 1 21 7 19 24 -2 12 -6 25 -10
29 -4 4 -7 16 -7 26 0 24 -17 23 -30 -3z"/>
<path d="M2130 7159 c0 -5 5 -7 10 -4 6 3 10 8 10 11 0 2 -4 4 -10 4 -5 0 -10
-5 -10 -11z"/>
<path d="M2995 7160 c-3 -5 -2 -10 4 -10 5 0 13 5 16 10 3 6 2 10 -4 10 -5 0
-13 -4 -16 -10z"/>
<path d="M2206 7141 c-10 -11 -16 -25 -14 -32 2 -7 12 0 22 16 21 32 16 43 -8
16z"/>
<path d="M1916 7125 c-26 -11 -27 -12 -8 -17 12 -4 26 0 33 8 17 20 9 23 -25
9z"/>
<path d="M3709 7113 c18 -25 36 -31 27 -8 -3 9 0 15 9 15 8 0 15 4 15 9 0 5
-15 9 -34 8 -32 -2 -33 -3 -17 -24z"/>
<path d="M4794 7110 c3 -14 6 -30 6 -36 0 -7 9 -14 20 -17 28 -7 25 14 -6 49
-26 29 -26 29 -20 4z"/>
<path d="M3067 7105 c-4 -8 -2 -17 3 -20 6 -4 10 3 10 14 0 25 -6 27 -13 6z"/>
<path d="M4514 7108 c-10 -16 4 -22 28 -11 l22 10 -22 5 c-12 4 -25 2 -28 -4z"/>
<path d="M2222 7103 c-6 -2 -9 -10 -6 -15 4 -6 3 -9 -2 -5 -15 9 -74 -21 -74
-38 0 -8 -5 -15 -11 -15 -5 0 -7 -5 -3 -11 4 -7 15 -1 30 17 13 16 23 23 24
15 0 -10 8 -11 28 -7 15 4 36 8 47 10 31 4 85 27 85 36 0 14 -33 21 -41 8 -7
-10 -11 -10 -21 0 -12 12 -33 14 -56 5z"/>
<path d="M2555 7100 c3 -5 8 -10 11 -10 2 0 4 5 4 10 0 6 -5 10 -11 10 -5 0
-7 -4 -4 -10z"/>
<path d="M3885 7096 c-47 -18 -75 -36 -75 -47 0 -6 7 -8 16 -5 8 3 12 2 9 -4
-3 -6 -1 -10 4 -10 6 0 11 3 11 8 0 4 18 18 40 32 58 36 55 49 -5 26z"/>
<path d="M4343 7096 c3 -8 1 -17 -6 -20 -8 -3 -8 -5 -1 -5 6 -1 17 5 23 13 9
11 8 15 -5 20 -11 4 -15 2 -11 -8z"/>
<path d="M2970 7084 c0 -8 5 -12 10 -9 6 4 8 11 5 16 -9 14 -15 11 -15 -7z"/>
<path d="M4247 7086 c-15 -7 -24 -15 -21 -19 4 -4 -1 -9 -10 -13 -9 -3 -16
-15 -16 -26 0 -15 5 -18 19 -13 11 3 22 1 26 -5 3 -6 11 -7 17 -4 6 4 6 -1 -1
-14 -8 -16 -7 -21 5 -26 9 -3 17 -6 18 -6 6 0 -8 77 -16 87 -6 8 -3 13 11 18
23 7 29 36 9 34 -7 0 -25 -6 -41 -13z"/>
<path d="M3190 7075 c-7 -9 -21 -13 -31 -10 -22 7 -26 -10 -5 -18 15 -6 63 29
54 38 -3 3 -11 -1 -18 -10z"/>
<path d="M4389 7086 c-1 -3 -3 -10 -4 -16 -1 -5 -3 -15 -4 -21 0 -5 -5 -8 -10
-5 -4 3 -17 -1 -27 -9 -18 -14 -18 -15 6 -12 14 1 30 6 36 10 16 9 24 46 13
53 -5 3 -10 3 -10 0z"/>
<path d="M3101 7064 c0 -11 3 -14 6 -6 3 7 2 16 -1 19 -3 4 -6 -2 -5 -13z"/>
<path d="M4470 7069 c0 -5 5 -7 10 -4 6 3 10 8 10 11 0 2 -4 4 -10 4 -5 0 -10
-5 -10 -11z"/>
<path d="M4557 7063 c3 -7 6 -13 8 -13 2 0 5 6 8 13 3 8 -1 14 -8 14 -7 0 -11
-6 -8 -14z"/>
<path d="M4427 7063 c-14 -13 -7 -38 14 -51 19 -12 19 -11 9 8 -10 18 -7 24
12 21 4 0 5 6 2 14 -6 16 -26 20 -37 8z"/>
<path d="M2300 7044 c0 -8 5 -12 10 -9 6 4 8 11 5 16 -9 14 -15 11 -15 -7z"/>
<path d="M2045 7029 c-11 -17 1 -21 15 -4 8 9 8 15 2 15 -6 0 -14 -5 -17 -11z"/>
<path d="M4500 7029 c0 -5 5 -7 10 -4 6 3 10 8 10 11 0 2 -4 4 -10 4 -5 0 -10
-5 -10 -11z"/>
<path d="M4525 7014 c-16 -25 -17 -25 -36 -8 -18 16 -19 16 -19 -3 0 -25 56
-68 66 -51 4 7 2 14 -4 16 -7 2 -12 9 -12 15 0 5 3 7 7 4 5 -6 33 36 33 49 0
13 -20 0 -35 -22z"/>
<path d="M4605 7028 c5 -7 14 -20 22 -30 10 -11 11 -18 4 -23 -7 -4 0 -16 18
-31 34 -28 41 -30 41 -7 0 9 -3 14 -6 10 -10 -9 -36 21 -29 33 5 8 11 8 20 0
10 -8 13 -5 13 15 0 27 -16 33 -36 13 -9 -9 -12 -9 -12 0 0 6 -10 16 -21 23
-17 9 -20 8 -14 -3z"/>
<path d="M4300 7000 c0 -19 3 -21 12 -12 9 9 9 15 0 24 -9 9 -12 7 -12 -12z"/>
<path d="M4556 7004 c-9 -24 -7 -28 9 -14 17 14 20 30 6 30 -5 0 -12 -7 -15
-16z"/>
<path d="M4380 7000 c0 -6 7 -10 16 -10 10 0 14 -5 10 -16 -3 -8 -2 -13 3 -9
5 3 12 -1 14 -7 3 -7 6 -4 6 8 1 13 -8 25 -24 32 -15 7 -25 8 -25 2z"/>
<path d="M4697 7004 c-3 -3 -2 -18 2 -32 5 -15 6 -34 3 -42 -3 -8 -1 -12 3 -8
4 4 16 3 27 -3 12 -7 24 -7 31 -1 7 5 20 8 30 7 9 -2 15 1 12 6 -3 4 -21 8
-39 7 -44 -2 -57 8 -50 37 5 22 -7 41 -19 29z"/>
<path d="M4787 6995 c-15 -8 -34 -12 -42 -8 -8 3 -15 0 -15 -6 0 -15 43 -14
58 1 9 9 12 7 12 -10 0 -12 9 -26 21 -32 17 -10 21 -8 26 8 3 14 11 18 24 15
14 -4 19 0 19 16 0 19 -3 19 -27 9 -16 -7 -34 -19 -40 -27 -11 -13 -13 -13
-13 3 0 10 9 20 21 23 16 4 17 8 7 14 -17 11 -18 11 -51 -6z"/>
<path d="M4574 6988 c-4 -5 0 -14 7 -19 11 -6 8 -9 -8 -9 -26 0 -39 -18 -24
-33 8 -8 11 -8 11 2 0 7 5 9 10 6 6 -4 7 -11 4 -17 -7 -12 16 -29 28 -22 5 3
1 12 -7 20 -8 9 -12 20 -9 26 4 7 9 6 14 -1 3 -7 7 2 7 18 0 31 -21 49 -33 29z"/>
<path d="M1922 6970 c-8 -13 -8 -20 -2 -20 6 0 13 7 17 15 9 24 -1 27 -15 5z"/>
<path d="M4440 6976 c0 -16 28 -42 36 -33 3 3 -4 15 -15 26 -14 14 -21 17 -21
7z"/>
<path d="M2338 6962 c-16 -10 -28 -23 -28 -30 0 -7 -3 -11 -8 -8 -13 7 -45
-22 -37 -34 11 -19 96 -6 112 16 16 22 3 30 -26 15 -36 -20 -31 6 7 33 40 28
24 35 -20 8z"/>
<path d="M2885 6970 c3 -5 8 -10 11 -10 2 0 4 5 4 10 0 6 -5 10 -11 10 -5 0
-7 -4 -4 -10z"/>
<path d="M4240 6940 c0 -5 4 -10 9 -10 6 0 13 5 16 10 3 6 -1 10 -9 10 -9 0
-16 -4 -16 -10z"/>
<path d="M4290 6941 c0 -6 5 -13 10 -16 6 -3 10 1 10 9 0 9 -4 16 -10 16 -5 0
-10 -4 -10 -9z"/>
<path d="M1929 6923 c-13 -16 -12 -17 4 -4 9 7 17 15 17 17 0 8 -8 3 -21 -13z"/>
<path d="M4096 6925 c-12 -13 -20 -14 -37 -4 -12 6 -24 7 -28 3 -3 -5 -18 -15
-33 -23 -16 -8 -28 -20 -28 -26 0 -16 -45 -39 -62 -32 -9 4 -6 8 10 12 12 4
22 11 22 16 0 5 -22 -2 -50 -16 -53 -27 -67 -41 -25 -25 17 7 25 6 25 -1 0 -6
9 -9 20 -6 21 5 27 -7 9 -18 -6 -4 -8 -13 -5 -21 3 -8 1 -14 -5 -14 -6 0 -7
-5 -4 -10 4 -6 12 -4 21 5 16 15 44 21 44 8 0 -3 -7 -15 -17 -25 -18 -21 -6
-24 19 -4 11 8 15 20 11 34 -10 40 22 36 66 -8 22 -22 41 -44 41 -48 0 -4 -7
1 -15 12 -14 19 -45 16 -45 -5 0 -6 7 -9 15 -5 9 3 15 0 15 -8 0 -15 16 -16
36 -3 7 4 15 0 18 -9 4 -11 10 -13 19 -7 8 6 20 5 36 -3 22 -11 22 -12 5 -23
-18 -10 -18 -10 -1 -11 10 0 20 7 23 15 4 8 10 15 16 15 5 0 6 -4 3 -10 -3 -5
-1 -10 4 -10 6 0 11 9 11 21 0 29 18 59 35 59 8 0 15 5 15 11 0 13 -42 1 -52
-15 -6 -8 -8 -8 -8 0 0 6 7 17 15 24 8 7 11 17 7 24 -4 6 -7 20 -7 31 0 15 -6
19 -22 17 -17 -2 -21 1 -17 12 4 9 16 13 37 11 29 -2 32 0 33 26 1 23 -1 26
-10 14 -10 -13 -15 -13 -38 -1 -15 8 -29 12 -32 8 -3 -3 -6 0 -6 7 0 13 -14
12 -54 -5 -16 -6 -18 -4 -13 9 8 21 3 21 -17 2z m-56 -48 c0 -16 -61 -80 -68
-72 -3 3 4 15 15 28 11 12 23 30 26 40 7 20 27 23 27 4z m14 -42 c-4 -8 -8
-15 -10 -15 -2 0 -4 7 -4 15 0 8 4 15 10 15 5 0 7 -7 4 -15z m96 5 c0 -5 -4
-10 -10 -10 -5 0 -10 5 -10 10 0 6 5 10 10 10 6 0 10 -4 10 -10z m15 -39 c-10
-9 -55 -9 -55 0 0 5 13 8 30 7 16 -1 27 -4 25 -7z m36 -94 c-10 -9 -11 -8 -5
6 3 10 9 15 12 12 3 -3 0 -11 -7 -18z"/>
<path d="M2213 6913 c-13 -8 -23 -22 -23 -29 0 -12 5 -12 30 1 17 9 30 22 30
30 0 19 -9 18 -37 -2z"/>
<path d="M3011 6914 c0 -11 3 -14 6 -6 3 7 2 16 -1 19 -3 4 -6 -2 -5 -13z"/>
<path d="M4499 6896 c29 -31 37 -32 44 -6 3 11 1 20 -4 20 -5 0 -9 -5 -9 -11
0 -7 -11 -4 -27 6 l-28 18 24 -27z"/>
<path d="M4631 6911 c-9 -6 -7 -10 8 -14 12 -3 21 -1 21 3 0 14 -15 19 -29 11z"/>
<path d="M3900 6895 c-7 -8 -8 -15 -2 -15 5 0 15 7 22 15 7 8 8 15 2 15 -5 0
-15 -7 -22 -15z"/>
<path d="M4391 6896 c-7 -8 -8 -17 -3 -20 6 -3 12 3 15 14 6 24 4 25 -12 6z"/>
<path d="M3764 6884 c-16 -13 -16 -15 -1 -10 21 7 23 -10 1 -18 -9 -3 -29 -6
-44 -6 -16 0 -32 -4 -35 -10 -4 -6 13 -10 44 -10 62 0 66 1 64 18 0 7 5 11 11
9 19 -7 43 10 31 21 -20 19 -51 22 -71 6z"/>
<path d="M3020 6879 c0 -5 5 -7 10 -4 6 3 10 8 10 11 0 2 -4 4 -10 4 -5 0 -10
-5 -10 -11z"/>
<path d="M2896 6873 c-11 -11 -7 -20 9 -20 8 0 15 4 15 8 0 11 -16 20 -24 12z"/>
<path d="M3050 6855 c7 -8 17 -15 22 -15 6 0 5 7 -2 15 -7 8 -17 15 -22 15 -6
0 -5 -7 2 -15z"/>
<path d="M2216 6843 c-6 -14 -5 -15 5 -6 7 7 10 15 7 18 -3 3 -9 -2 -12 -12z"/>
<path d="M2415 6840 c-3 -5 -2 -10 4 -10 5 0 13 5 16 10 3 6 2 10 -4 10 -5 0
-13 -4 -16 -10z"/>
<path d="M2700 6832 c0 -16 32 -12 37 5 3 7 -4 11 -16 10 -12 -1 -21 -7 -21
-15z"/>
<path d="M3372 6835 c-7 -8 -10 -15 -6 -15 4 0 -5 -10 -20 -21 -20 -16 -30
-19 -39 -10 -14 14 -47 15 -47 1 0 -5 5 -10 12 -10 6 0 19 -7 29 -16 23 -21
46 -12 59 21 5 14 16 25 22 24 20 -4 78 12 78 21 0 4 -7 10 -15 14 -8 3 -15 0
-15 -6 0 -9 -3 -9 -12 0 -16 16 -30 15 -46 -3z"/>
<path d="M3539 6849 c-6 -47 -3 -86 6 -86 12 0 12 74 0 85 -3 3 -5 3 -6 1z"/>
<path d="M4426 6835 c-3 -8 -1 -15 4 -15 6 0 10 7 10 15 0 8 -2 15 -4 15 -2 0
-6 -7 -10 -15z"/>
<path d="M1991 6824 c0 -11 3 -14 6 -6 3 7 2 16 -1 19 -3 4 -6 -2 -5 -13z"/>
<path d="M2897 6833 c-4 -3 -7 -11 -7 -17 0 -6 5 -5 12 2 6 6 9 14 7 17 -3 3
-9 2 -12 -2z"/>
<path d="M3567 6820 c6 -24 31 -27 40 -4 3 9 12 13 22 9 12 -5 13 -4 4 6 -10
9 -15 10 -27 0 -10 -8 -16 -9 -21 -1 -11 18 -23 11 -18 -10z"/>
<path d="M2170 6820 c0 -5 5 -10 10 -10 6 0 10 5 10 10 0 6 -4 10 -10 10 -5 0
-10 -4 -10 -10z"/>
<path d="M2365 6820 c-3 -5 -1 -10 4 -10 6 0 11 5 11 10 0 6 -2 10 -4 10 -3 0
-8 -4 -11 -10z"/>
<path d="M4500 6819 c0 -5 5 -7 10 -4 6 3 10 8 10 11 0 2 -4 4 -10 4 -5 0 -10
-5 -10 -11z"/>
<path d="M1890 6810 c0 -5 5 -10 11 -10 5 0 7 5 4 10 -3 6 -8 10 -11 10 -2 0
-4 -4 -4 -10z"/>
<path d="M3757 6813 c-9 -8 24 -32 46 -33 9 0 16 -3 16 -7 -4 -24 2 -43 12
-38 6 4 8 14 5 22 -3 8 1 21 10 30 8 8 12 18 8 22 -3 3 -11 -1 -17 -10 -8 -13
-15 -14 -33 -5 -13 6 -24 14 -24 19 0 9 -14 9 -23 0z"/>
<path d="M3587 6783 c-4 -3 -7 -11 -7 -17 0 -6 5 -5 12 2 6 6 9 14 7 17 -3 3
-9 2 -12 -2z"/>
<path d="M4442 6768 c-7 -7 -12 -21 -12 -32 1 -21 1 -21 12 -1 6 11 16 23 21
26 6 4 6 9 0 12 -6 4 -15 1 -21 -5z"/>
<path d="M4498 6750 c-16 -16 -33 -30 -38 -30 -4 0 -14 -7 -21 -17 -13 -15
-12 -15 9 -4 16 9 22 9 22 0 0 -6 18 7 40 30 22 22 40 43 40 46 0 14 -25 2
-52 -25z"/>
<path d="M3700 6759 c0 -5 5 -7 10 -4 6 3 10 8 10 11 0 2 -4 4 -10 4 -5 0 -10
-5 -10 -11z"/>
<path d="M3274 6739 c0 -10 8 -20 18 -22 10 -3 18 0 18 7 0 6 -8 16 -18 22
-15 10 -18 8 -18 -7z"/>
<path d="M3414 6735 c0 -13 4 -21 9 -18 4 2 7 -1 7 -7 0 -6 4 -9 9 -6 12 8 2
43 -14 50 -8 3 -12 -3 -11 -19z"/>
<path d="M3791 6744 c0 -11 3 -14 6 -6 3 7 2 16 -1 19 -3 4 -6 -2 -5 -13z"/>
<path d="M4010 6745 c-7 -9 -8 -15 -2 -15 5 0 12 7 16 15 3 8 4 15 2 15 -2 0
-9 -7 -16 -15z"/>
<path d="M4308 6736 c-17 -23 -17 -24 1 -19 11 3 21 13 24 24 7 26 -4 23 -25
-5z"/>
<path d="M4585 6750 c-4 -6 -12 -7 -18 -4 -9 5 -9 4 0 -6 9 -10 15 -10 28 4 9
9 12 16 6 16 -5 0 -13 -5 -16 -10z"/>
<path d="M4630 6745 c0 -8 4 -15 10 -15 5 0 7 7 4 15 -4 8 -8 15 -10 15 -2 0
-4 -7 -4 -15z"/>
<path d="M3646 6737 c3 -10 9 -15 12 -12 3 3 0 11 -7 18 -10 9 -11 8 -5 -6z"/>
<path d="M3670 6740 c0 -5 5 -10 10 -10 6 0 10 5 10 10 0 6 -4 10 -10 10 -5 0
-10 -4 -10 -10z"/>
<path d="M4760 6741 c0 -7 -4 -9 -10 -6 -5 3 -10 1 -10 -4 0 -6 4 -11 9 -11
13 0 25 20 17 27 -3 4 -6 1 -6 -6z"/>
<path d="M3515 6730 c-3 -5 -2 -10 4 -10 5 0 13 5 16 10 3 6 2 10 -4 10 -5 0
-13 -4 -16 -10z"/>
<path d="M2295 6720 c-3 -5 -1 -10 4 -10 6 0 11 5 11 10 0 6 -2 10 -4 10 -3 0
-8 -4 -11 -10z"/>
<path d="M2413 6715 c-9 -25 2 -27 22 -5 17 18 17 20 1 20 -9 0 -19 -7 -23
-15z"/>
<path d="M3747 6723 c-3 -3 1 -12 9 -20 8 -9 18 -13 21 -10 3 3 -1 13 -10 21
-8 8 -17 12 -20 9z"/>
<path d="M2457 6713 c-17 -17 -5 -32 23 -30 35 2 34 1 14 21 -17 17 -27 20
-37 9z"/>
<path d="M3890 6713 c-26 -11 -80 -55 -80 -67 0 -8 2 -8 8 0 4 6 17 14 30 18
12 4 22 14 22 22 0 8 6 14 14 14 8 0 18 5 21 10 7 11 7 11 -15 3z"/>
<path d="M3930 6710 c-8 -5 -11 -12 -7 -16 4 -4 13 -2 19 4 15 15 7 24 -12 12z"/>
<path d="M4340 6705 c0 -8 5 -15 11 -15 5 0 7 -5 3 -12 -4 -6 -3 -8 4 -5 12 8
4 47 -9 47 -5 0 -9 -7 -9 -15z"/>
<path d="M3540 6696 c0 -8 -6 -17 -12 -19 -8 -3 -6 -6 5 -6 9 -1 17 1 17 3 0
2 3 11 6 20 3 9 1 16 -5 16 -6 0 -11 -6 -11 -14z"/>
<path d="M3607 6703 c-4 -3 -7 -11 -7 -17 0 -6 5 -5 12 2 6 6 9 14 7 17 -3 3
-9 2 -12 -2z"/>
<path d="M4400 6700 c0 -5 5 -10 10 -10 6 0 10 5 10 10 0 6 -4 10 -10 10 -5 0
-10 -4 -10 -10z"/>
<path d="M4650 6700 c-8 -5 -10 -10 -5 -10 6 0 17 5 25 10 8 5 11 10 5 10 -5
0 -17 -5 -25 -10z"/>
<path d="M4700 6708 c-4 -12 -7 -27 -9 -39 0 -5 -5 -7 -11 -4 -5 3 -10 2 -10
-4 0 -5 -3 -18 -6 -28 -5 -14 -3 -13 10 4 9 12 26 23 38 25 14 2 24 11 26 23
3 19 2 19 -12 2 -14 -18 -15 -18 -19 5 -2 13 -5 20 -7 16z"/>
<path d="M3630 6685 c0 -8 4 -15 10 -15 5 0 7 7 4 15 -4 8 -8 15 -10 15 -2 0
-4 -7 -4 -15z"/>
<path d="M4244 6693 c10 -10 46 -11 40 -1 -3 4 -15 8 -26 8 -12 0 -18 -3 -14
-7z"/>
<path d="M4754 6693 c3 -6 2 -14 -4 -18 -5 -3 -10 -14 -10 -23 0 -13 4 -11 16
7 13 18 14 25 4 34 -10 9 -11 9 -6 0z"/>
<path d="M2103 6682 c-5 -4 -13 -16 -18 -27 -17 -41 -15 -60 5 -75 17 -13 21
-29 23 -94 3 -63 7 -81 22 -92 10 -8 15 -14 11 -14 -4 0 -1 -7 7 -15 11 -11
28 -13 66 -8 50 6 51 5 51 -20 0 -14 6 -29 13 -34 17 -11 80 -12 94 -1 15 12
33 2 33 -18 0 -21 16 -17 33 10 15 23 15 24 -6 18 -19 -5 -20 -3 -9 11 11 13
10 17 -7 26 -15 9 -20 21 -20 54 0 71 -5 97 -19 97 -8 0 -16 -9 -19 -20 -3
-11 -17 -23 -32 -26 -14 -4 -37 -13 -50 -21 -13 -8 -21 -11 -17 -5 17 28 -26
58 -58 40 -24 -14 2 -40 27 -26 17 9 17 7 7 -12 -7 -13 -8 -20 -2 -17 5 4 18
-1 28 -9 18 -15 18 -15 -5 -10 -14 3 -30 1 -37 -5 -9 -7 -14 -4 -19 10 -3 12
-13 21 -22 21 -12 0 -13 8 -8 40 5 27 3 46 -5 55 -7 8 -14 41 -17 72 -2 32 -5
63 -5 69 -2 16 -33 34 -45 26z m56 -252 c0 -15 -3 -19 -6 -10 -3 8 -13 21 -22
28 -14 11 -14 14 -1 22 18 11 30 -5 29 -40z m241 -6 c0 -8 -5 -12 -10 -9 -6 4
-8 11 -5 16 9 14 15 11 15 -7z m-10 -48 c0 -3 -4 -8 -10 -11 -5 -3 -10 -1 -10
4 0 6 5 11 10 11 6 0 10 -2 10 -4z m-60 -46 c0 -5 -5 -10 -11 -10 -5 0 -7 5
-4 10 3 6 8 10 11 10 2 0 4 -4 4 -10z m30 0 c0 -5 -5 -10 -11 -10 -5 0 -7 5
-4 10 3 6 8 10 11 10 2 0 4 -4 4 -10z"/>
<path d="M3971 6668 c0 -13 3 -18 6 -11 3 9 16 5 43 -12 36 -23 50 -23 50 -2
0 6 -3 7 -6 4 -11 -10 -45 13 -38 25 5 7 2 9 -9 5 -9 -3 -19 -2 -22 3 -11 18
-25 10 -24 -12z"/>
<path d="M2285 6670 c3 -5 8 -10 11 -10 2 0 4 5 4 10 0 6 -5 10 -11 10 -5 0
-7 -4 -4 -10z"/>
<path d="M2337 6673 c-4 -3 -7 -11 -7 -17 0 -6 5 -5 12 2 6 6 9 14 7 17 -3 3
-9 2 -12 -2z"/>
<path d="M3351 6653 c-10 -26 -10 -27 4 -9 8 11 15 23 15 28 0 15 -7 8 -19
-19z"/>
<path d="M4570 6669 c0 -5 5 -7 10 -4 6 3 10 8 10 11 0 2 -4 4 -10 4 -5 0 -10
-5 -10 -11z"/>
<path d="M2370 6640 c0 -5 5 -10 10 -10 6 0 10 5 10 10 0 6 -4 10 -10 10 -5 0
-10 -4 -10 -10z"/>
<path d="M2590 6641 c0 -6 5 -13 10 -16 6 -3 10 1 10 9 0 9 -4 16 -10 16 -5 0
-10 -4 -10 -9z"/>
<path d="M3308 6639 c-19 -11 -24 -34 -9 -43 5 -4 7 4 3 16 -4 17 -2 20 11 15
11 -4 17 -1 17 8 0 17 0 17 -22 4z"/>
<path d="M2952 6615 c0 -16 2 -22 5 -12 2 9 2 23 0 30 -3 6 -5 -1 -5 -18z"/>
<path d="M3846 6625 c6 -14 53 -13 58 2 3 7 -7 11 -28 10 -18 -1 -32 -6 -30
-12z"/>
<path d="M3926 6628 c7 -11 34 -10 34 1 0 6 -9 9 -19 8 -11 0 -17 -5 -15 -9z"/>
<path d="M4705 6630 c3 -5 8 -10 11 -10 2 0 4 5 4 10 0 6 -5 10 -11 10 -5 0
-7 -4 -4 -10z"/>
<path d="M3261 6613 c0 -5 4 -17 9 -28 8 -17 8 -16 7 8 -1 15 -5 27 -9 27 -4
0 -8 -3 -7 -7z"/>
<path d="M3813 6605 c-3 -9 -3 -18 -1 -21 3 -3 8 4 11 16 6 23 -1 27 -10 5z"/>
<path d="M4540 6600 c-13 -11 -29 -20 -37 -20 -7 0 -13 -5 -13 -10 0 -6 14 -4
31 5 17 9 37 14 45 11 16 -6 18 2 6 22 -7 9 -14 8 -32 -8z"/>
<path d="M4596 6605 c3 -8 10 -12 15 -9 13 8 11 -10 -3 -25 -11 -10 -9 -11 7
-5 20 8 35 23 35 37 0 5 -4 5 -10 2 -5 -3 -19 -1 -30 5 -16 9 -18 8 -14 -5z"/>
<path d="M4663 6598 c3 -9 1 -18 -5 -20 -14 -5 -2 -28 14 -28 6 0 8 3 5 7 -4
3 -3 11 2 17 6 7 3 17 -7 26 -14 13 -15 12 -9 -2z"/>
<path d="M4453 6586 c-13 -6 -23 -16 -23 -23 0 -17 23 -29 28 -15 2 7 8 10 13
6 5 -3 9 6 9 20 0 14 -1 25 -2 25 -2 -1 -13 -6 -25 -13z"/>
<path d="M2305 6580 c3 -5 8 -10 11 -10 2 0 4 5 4 10 0 6 -5 10 -11 10 -5 0
-7 -4 -4 -10z"/>
<path d="M3399 6575 c-1 -8 -2 -21 -3 -27 -1 -7 -4 -15 -8 -18 -3 -3 -9 -32
-13 -65 -3 -33 -8 -71 -11 -85 -3 -16 -2 -20 4 -12 5 7 22 14 38 16 19 2 30
10 32 22 2 10 13 29 24 41 17 18 19 25 9 37 -7 8 -9 21 -5 27 5 8 3 9 -6 4
-10 -6 -12 -4 -7 9 5 14 3 15 -13 6 -29 -15 -31 -13 -24 25 4 23 2 35 -5 35
-6 0 -12 -7 -12 -15z"/>
<path d="M3940 6580 c-9 -6 -10 -10 -3 -10 6 0 15 5 18 10 8 12 4 12 -15 0z"/>
<path d="M4070 6567 c0 -17 21 -27 55 -27 35 0 40 18 8 26 -15 3 -36 8 -45 11
-11 3 -18 -1 -18 -10z"/>
<path d="M4745 6570 c-4 -6 -11 -7 -17 -4 -7 4 -8 2 -4 -4 10 -16 23 -15 30 3
6 17 0 20 -9 5z"/>
<path d="M2485 6549 c-9 -14 -2 -20 14 -10 8 6 9 11 3 15 -6 3 -14 1 -17 -5z"/>
<path d="M3683 6527 c-4 -8 -29 -19 -55 -26 -26 -6 -64 -20 -83 -31 -20 -11
-42 -20 -50 -20 -8 0 -15 -5 -15 -11 0 -5 -4 -7 -10 -4 -5 3 -7 0 -4 -9 3 -8
2 -21 -2 -28 -5 -7 -8 -32 -9 -55 0 -51 -9 -61 -33 -40 -17 16 -20 15 -40 -3
l-22 -21 0 38 0 37 -32 -34 c-19 -22 -33 -30 -36 -22 -6 19 -18 14 -29 -11 -8
-17 -7 -29 2 -47 7 -12 10 -31 7 -42 -3 -11 1 -18 11 -18 8 0 18 -7 21 -16 9
-22 8 -26 -5 -18 -7 4 -4 -7 6 -24 10 -17 29 -36 42 -43 15 -8 21 -18 18 -29
-3 -10 1 -23 10 -30 8 -7 15 -18 15 -25 0 -20 49 -5 115 35 l60 37 6 65 c3 44
12 75 27 95 12 17 22 36 22 41 0 6 9 8 20 5 14 -4 20 0 20 12 0 12 6 16 20 12
11 -3 20 0 20 6 0 7 14 21 30 32 17 11 35 34 40 52 6 17 17 34 25 37 22 8 19
79 -3 99 -23 21 -98 23 -109 4z"/>
<path d="M4247 6523 c4 -11 8 -13 11 -5 2 7 8 10 13 6 5 -3 9 0 9 5 0 6 -9 11
-20 11 -14 0 -18 -5 -13 -17z"/>
<path d="M3155 6519 c-10 -16 4 -61 16 -53 8 4 7 9 -1 14 -7 4 -10 17 -7 29 6
23 2 27 -8 10z"/>
<path d="M4205 6520 c-3 -5 -1 -10 4 -10 6 0 11 5 11 10 0 6 -2 10 -4 10 -3 0
-8 -4 -11 -10z"/>
<path d="M4480 6520 c0 -5 5 -10 10 -10 6 0 10 5 10 10 0 6 -4 10 -10 10 -5 0
-10 -4 -10 -10z"/>
<path d="M3830 6511 c0 -6 4 -13 10 -16 6 -3 7 1 4 9 -7 18 -14 21 -14 7z"/>
<path d="M3990 6490 c0 -32 11 -38 28 -17 9 10 6 17 -8 30 -19 16 -20 16 -20
-13z"/>
<path d="M4185 6490 c3 -5 8 -10 11 -10 2 0 4 5 4 10 0 6 -5 10 -11 10 -5 0
-7 -4 -4 -10z"/>
<path d="M4574 6484 c3 -8 6 -18 6 -20 0 -3 5 -2 10 1 15 9 12 22 -6 29 -12 5
-15 2 -10 -10z"/>
<path d="M3235 6479 c-9 -14 -2 -20 14 -10 8 6 9 11 3 15 -6 3 -14 1 -17 -5z"/>
<path d="M4505 6480 c-3 -5 3 -18 15 -30 16 -16 20 -17 20 -4 0 8 -6 22 -14
30 -9 8 -17 10 -21 4z"/>
<path d="M2835 6460 c-4 -6 -12 -7 -18 -4 -9 5 -9 4 0 -6 7 -8 16 -9 28 -2 11
6 14 12 7 16 -6 3 -13 2 -17 -4z"/>
<path d="M3182 6455 c-11 -12 -10 -15 3 -15 8 0 15 7 15 15 0 18 -2 18 -18 0z"/>
<path d="M3280 6435 c-8 -20 -6 -32 6 -51 21 -31 29 -25 13 9 -9 20 -9 30 0
41 8 10 9 16 1 21 -5 3 -14 -6 -20 -20z"/>
<path d="M2450 6440 c0 -5 -7 -10 -15 -10 -8 0 -15 -9 -15 -20 0 -25 12 -26
33 -2 19 21 22 42 7 42 -5 0 -10 -4 -10 -10z"/>
<path d="M3118 6417 c-11 -9 -14 -18 -7 -28 7 -12 9 -12 9 2 0 8 12 20 28 26
21 9 23 11 7 12 -11 0 -28 -5 -37 -12z"/>
<path d="M2470 6400 c0 -23 25 -27 33 -6 7 16 -1 26 -20 26 -7 0 -13 -9 -13
-20z"/>
<path d="M2085 6390 c3 -5 8 -10 11 -10 2 0 4 5 4 10 0 6 -5 10 -11 10 -5 0
-7 -4 -4 -10z"/>
<path d="M3001 6384 c13 -16 29 -19 29 -5 0 5 -9 11 -21 14 -16 4 -18 3 -8 -9z"/>
<path d="M2006 6383 c-11 -11 -6 -23 9 -23 8 0 15 4 15 9 0 13 -16 22 -24 14z"/>
<path d="M2045 6380 c-3 -5 -1 -10 4 -10 6 0 11 5 11 10 0 6 -2 10 -4 10 -3 0
-8 -4 -11 -10z"/>
<path d="M2115 6370 c3 -5 8 -10 11 -10 2 0 4 5 4 10 0 6 -5 10 -11 10 -5 0
-7 -4 -4 -10z"/>
<path d="M2800 6325 c0 -8 5 -15 10 -15 6 0 10 7 10 15 0 8 -4 15 -10 15 -5 0
-10 -7 -10 -15z"/>
<path d="M2781 6314 c0 -11 3 -14 6 -6 3 7 2 16 -1 19 -3 4 -6 -2 -5 -13z"/>
<path d="M2897 6323 c-15 -14 -7 -43 12 -43 14 0 19 7 17 25 -1 24 -15 33 -29
18z"/>
<path d="M3890 6320 c0 -5 5 -10 10 -10 6 0 10 5 10 10 0 6 -4 10 -10 10 -5 0
-10 -4 -10 -10z"/>
<path d="M2115 6300 c-3 -5 -1 -10 4 -10 6 0 11 5 11 10 0 6 -2 10 -4 10 -3 0
-8 -4 -11 -10z"/>
<path d="M2245 6300 c3 -5 8 -10 11 -10 2 0 4 5 4 10 0 6 -5 10 -11 10 -5 0
-7 -4 -4 -10z"/>
<path d="M3900 6289 c0 -5 5 -7 10 -4 6 3 10 8 10 11 0 2 -4 4 -10 4 -5 0 -10
-5 -10 -11z"/>
<path d="M2370 6260 c0 -5 4 -10 9 -10 6 0 13 5 16 10 3 6 -1 10 -9 10 -9 0
-16 -4 -16 -10z"/>
<path d="M2656 6255 c4 -8 8 -15 10 -15 2 0 4 7 4 15 0 8 -4 15 -10 15 -5 0
-7 -7 -4 -15z"/>
<path d="M2880 6256 c0 -9 5 -16 10 -16 6 0 10 4 10 9 0 6 -4 13 -10 16 -5 3
-10 -1 -10 -9z"/>
<path d="M2725 6250 c-8 -13 -1 -24 14 -19 6 3 7 10 2 18 -6 10 -10 10 -16 1z"/>
<path d="M2290 6230 c0 -5 5 -10 10 -10 6 0 10 5 10 10 0 6 -4 10 -10 10 -5 0
-10 -4 -10 -10z"/>
<path d="M3240 6230 c0 -5 5 -10 10 -10 6 0 10 5 10 10 0 6 -4 10 -10 10 -5 0
-10 -4 -10 -10z"/>
<path d="M2642 6201 c-20 -23 -22 -23 -12 -3 6 12 7 22 2 22 -5 0 -14 -11 -20
-24 -8 -19 -7 -30 9 -55 10 -17 16 -37 13 -46 -4 -8 -1 -15 5 -15 6 0 11 6 11
14 0 15 54 39 65 28 3 -4 3 1 -1 11 -3 10 -1 17 5 17 6 0 11 10 10 23 0 12 -3
16 -6 10 -6 -16 -33 -17 -33 -2 0 6 -7 9 -15 5 -17 -6 -20 5 -4 21 6 6 7 13 2
15 -4 3 -18 -7 -31 -21z m23 -51 c-3 -5 -13 -10 -21 -10 -8 0 -12 5 -9 10 3 6
13 10 21 10 8 0 12 -4 9 -10z"/>
<path d="M2210 6206 c0 -8 5 -18 10 -21 6 -3 10 3 10 14 0 12 -4 21 -10 21 -5
0 -10 -6 -10 -14z"/>
<path d="M2715 6210 c-3 -5 1 -10 10 -10 9 0 13 5 10 10 -3 6 -8 10 -10 10 -2
0 -7 -4 -10 -10z"/>
<path d="M2150 6187 c0 -13 6 -32 14 -42 12 -17 13 -17 18 9 4 22 2 26 -10 21
-12 -5 -12 -1 3 15 18 20 18 20 -3 20 -16 0 -22 -6 -22 -23z"/>
<path d="M2780 6200 c0 -13 18 -22 24 -11 3 5 -1 11 -9 15 -8 3 -15 1 -15 -4z"/>
<path d="M2517 6177 c-21 -25 -22 -41 -3 -34 7 3 19 0 25 -6 9 -9 10 -3 5 23
-4 19 -7 36 -8 37 -1 1 -9 -8 -19 -20z"/>
<path d="M2270 6180 c0 -5 5 -10 10 -10 6 0 10 5 10 10 0 6 -4 10 -10 10 -5 0
-10 -4 -10 -10z"/>
<path d="M3251 6134 c-12 -27 -11 -28 4 -12 10 9 16 21 13 28 -2 7 -10 -1 -17
-16z"/>
<path d="M2865 6140 c3 -5 8 -10 11 -10 2 0 4 5 4 10 0 6 -5 10 -11 10 -5 0
-7 -4 -4 -10z"/>
<path d="M2900 6140 c0 -5 5 -10 10 -10 6 0 10 5 10 10 0 6 -4 10 -10 10 -5 0
-10 -4 -10 -10z"/>
<path d="M2190 6129 c0 -5 5 -7 10 -4 6 3 10 8 10 11 0 2 -4 4 -10 4 -5 0 -10
-5 -10 -11z"/>
<path d="M2930 6129 c0 -5 5 -7 10 -4 6 3 10 8 10 11 0 2 -4 4 -10 4 -5 0 -10
-5 -10 -11z"/>
<path d="M2803 6112 c-8 -5 -9 -13 -3 -22 8 -13 10 -12 10 3 0 10 5 15 10 12
6 -3 10 -1 10 4 0 13 -10 14 -27 3z"/>
<path d="M2967 6106 c-9 -7 -28 -11 -42 -8 -30 5 -56 -13 -48 -34 3 -8 2 -14
-3 -12 -5 2 -10 0 -11 -4 -6 -18 -2 -26 15 -24 18 1 32 14 32 31 0 6 -5 3 -10
-5 -8 -12 -10 -11 -10 6 0 15 8 23 25 26 14 3 25 1 25 -4 0 -5 7 -3 15 5 8 9
20 17 27 20 7 2 11 7 8 10 -3 3 -13 0 -23 -7z"/>
<path d="M2856 6095 c-9 -26 -7 -32 5 -12 6 10 9 21 6 23 -2 3 -7 -2 -11 -11z"/>
<path d="M3095 6100 c-3 -5 -1 -10 4 -10 6 0 11 5 11 10 0 6 -2 10 -4 10 -3 0
-8 -4 -11 -10z"/>
<path d="M2825 6040 c-4 -6 -9 -8 -13 -6 -13 8 -30 -21 -21 -35 7 -11 9 -10 9
6 0 17 2 17 10 5 6 -10 10 -11 10 -2 0 6 7 12 15 12 8 0 15 4 15 9 0 15 -18
23 -25 11z"/>
<path d="M2848 6002 c-10 -2 -19 -7 -19 -10 -8 -44 -6 -60 4 -56 12 4 43 63
36 68 -2 1 -12 1 -21 -2z"/>
<path d="M2761 5986 c-8 -9 -11 -19 -7 -23 9 -9 29 13 24 27 -2 8 -8 7 -17 -4z"/>
<path d="M2880 5993 c0 -5 5 -15 10 -23 8 -12 10 -11 10 8 0 12 -4 22 -10 22
-5 0 -10 -3 -10 -7z"/>
<path d="M2673 5933 c-7 -3 -13 -12 -13 -20 0 -12 3 -13 13 -4 8 6 17 8 20 4
4 -3 7 -1 7 5 0 14 -12 20 -27 15z"/>
<path d="M2933 5843 c4 -6 2 -13 -4 -15 -5 -2 -7 -11 -4 -21 10 -25 24 -21 19
6 -2 12 -2 16 2 9 3 -6 10 -9 15 -6 6 3 7 -5 3 -19 -5 -22 -3 -25 15 -20 12 3
24 10 28 16 4 6 0 8 -9 4 -11 -4 -18 2 -23 20 -3 14 -9 23 -12 19 -3 -3 -13 0
-21 7 -11 8 -14 8 -9 0z"/>
<path d="M3008 5843 c7 -3 16 -2 19 1 4 3 -2 6 -13 5 -11 0 -14 -3 -6 -6z"/>
<path d="M2892 5794 c1 -10 7 -22 12 -25 8 -6 11 -20 15 -70 0 -8 8 -24 17
-35 8 -10 13 -13 9 -6 -4 7 -1 19 5 27 7 8 9 24 5 36 -4 12 -3 19 1 16 5 -3
15 1 22 9 16 18 2 18 -23 0 -11 -8 -16 -20 -12 -29 3 -9 2 -19 -3 -22 -15 -9
-12 49 3 64 10 11 9 13 -5 8 -12 -4 -18 -1 -18 7 0 7 -7 19 -16 27 -14 11 -15
10 -12 -7z"/>
<path d="M2658 5763 c7 -3 16 -2 19 1 4 3 -2 6 -13 5 -11 0 -14 -3 -6 -6z"/>
<path d="M3000 5705 c-19 -19 -31 -35 -26 -35 11 0 71 58 65 64 -3 3 -21 -10
-39 -29z"/>
<path d="M2882 5710 c13 -20 28 -27 28 -12 0 4 -9 13 -20 20 -19 12 -20 11 -8
-8z"/>
<path d="M2630 5700 c0 -5 5 -10 11 -10 5 0 7 5 4 10 -3 6 -8 10 -11 10 -2 0
-4 -4 -4 -10z"/>
<path d="M3380 5370 c0 -5 5 -10 10 -10 6 0 10 5 10 10 0 6 -4 10 -10 10 -5 0
-10 -4 -10 -10z"/>
<path d="M3295 5237 c-4 -10 -5 -21 -1 -24 10 -10 18 4 13 24 -4 17 -4 17 -12
0z"/>
<path d="M3230 5120 c0 -5 5 -10 10 -10 6 0 10 5 10 10 0 6 -4 10 -10 10 -5 0
-10 -4 -10 -10z"/>
<path d="M3280 5121 c0 -5 5 -13 10 -16 6 -3 10 -2 10 4 0 5 -4 13 -10 16 -5
3 -10 2 -10 -4z"/>
<path d="M3253 5085 c-6 -15 -7 -27 -2 -31 11 -6 22 19 17 40 -2 11 -6 9 -15
-9z"/>
<path d="M3222 5083 c-15 -28 -15 -63 -1 -63 7 0 9 10 7 25 -3 13 -1 26 5 28
5 1 8 10 5 17 -3 11 -8 10 -16 -7z"/>
<path d="M3160 4996 c0 -8 -3 -22 -7 -32 -4 -11 -2 -15 7 -12 20 6 32 58 14
58 -8 0 -14 -6 -14 -14z"/>
<path d="M3020 4870 c0 -5 5 -10 11 -10 5 0 7 5 4 10 -3 6 -8 10 -11 10 -2 0
-4 -4 -4 -10z"/>
<path d="M3020 4832 c6 -13 14 -21 18 -18 3 4 -2 14 -12 24 -18 16 -18 16 -6
-6z"/>
<path d="M2980 4799 c0 -5 5 -7 10 -4 6 3 10 8 10 11 0 2 -4 4 -10 4 -5 0 -10
-5 -10 -11z"/>
<path d="M3050 4744 c0 -8 5 -12 10 -9 6 4 8 11 5 16 -9 14 -15 11 -15 -7z"/>
<path d="M2956 4671 c-3 -5 1 -14 9 -21 12 -10 15 -10 15 3 0 19 -16 31 -24
18z"/>
<path d="M3000 4652 c6 -13 14 -21 18 -18 3 4 -2 14 -12 24 -18 16 -18 16 -6
-6z"/>
<path d="M2460 3891 c0 -5 5 -13 10 -16 6 -3 10 -2 10 4 0 5 -4 13 -10 16 -5
3 -10 2 -10 -4z"/>
<path d="M2470 3539 c0 -5 5 -7 10 -4 6 3 10 8 10 11 0 2 -4 4 -10 4 -5 0 -10
-5 -10 -11z"/>
</g>
</svg>
