<svg id="Calque_1" data-name="Calque 1" xmlns="http://www.w3.org/2000/svg" viewBox="0 0 323 323.531"><defs><style>.cls-1{fill:#2b388a;}.cls-1,.cls-2,.cls-3,.cls-4,.cls-5{fill-rule:evenodd;}.cls-2{fill:#06a139;}.cls-3{fill:#4eae33;}.cls-4,.cls-6{fill:#fff;}.cls-5{fill:#fafafa;}</style></defs><title>PUTAINDETERREDEMERDE</title><path class="cls-1" d="M284,202.5A161.5,161.5,0,1,1,122.5,364,160.751,160.751,0,0,1,284,202.5Z" transform="translate(-122.5 -202.5)"/><path class="cls-2" d="M192.6,385.9l-.034,17.03,4.9,15.747,12,17.346,11.493,8.362,18.278,22s3.445,24.5,8.635,28.556,6.08-16.372,6.08-16.372l-5.3-22.736-1.021-17.971,2.8-21.193,3.744-22.248-4.732-12.752-16.314-5.083-18.426-6.965-10.925,1.623-8.5-8.532-11.209-3.369-5.56-9.7-1.963-16.916,6.308-12.378,7.1,1.6,9.87-2.565,13.807-3.79,1.623,10.926,6.331,5.65,2.6-7.159-.568-9.984-.567-9.984-.681-11.981,4.481-9.269,9.3-12.548-7.069-18.629L204.506,243l-25.958,1.476-12.468,9.723-15.009,17.881-6.535,8.384-2.575,25.187,6.558,9.643,9.349,23.507,14.058,18.232,5.786,13.694Z" transform="translate(-122.5 -202.5)"/><path class="cls-2" d="M322.338,207.818c21.514,4.428,43,17,43,17s25.28,16.56,36,30c26.816,24.1,40,76,40,76l-19,7-18-1-12-15-9-25-14,24,9,11,14,8,9,11,2,18v16l-2,12-7,20-11,16-13,1-10-25-7-15-3-14-8-10-23-4-21-17v-26l20-12,21-8,16,4,11-19-6-19h-15l-3,4-2,4,2,3,1,6-3,3-2,3-4-2s-1.918-3.587-1-5a9.6,9.6,0,0,0,1-4l-1-5-7-1-2,4,2,4v7l2,1,2,1v2h-4l-3,1-1-2,1-3-1-5-2-3h-5l-6,1-2,3-1,4v6l1,6-6,3-5-3-2-5,1-5,2-3,2-2,3-4,1-4v-4l-1-5-3-1-3-1,1-3h4l1-4,1-2,3,1h3l2-4,1-4,4-3,2-2,5-2v-6l4,1v3l2-5v-6l-2-1-3,3-3-4,1-3,2-6-1-4s-4.232,1.261-4,3-3,7-3,7l-3,3-2,3-3-4,3-8,2-6-4,5-2,6-3,3-3-7,2-10,5-4S319.375,207.615,322.338,207.818Z" transform="translate(-122.5 -202.5)"/><path class="cls-3" d="M301.679,253.667l-2,1-3,3h-4l-4-1,1-4,1-4v-3l-2-3-1-2-3-3s-1.528-3.163,0-4,1.252-.489,3-1,4-1,4-1l2,3s.685.413,0,2a7.249,7.249,0,0,0,0,4l1,2s1.743,1.226,3,2,.359-.727,1,1,1,3,1,3l1,2h2Z" transform="translate(-122.5 -202.5)"/><path class="cls-3" d="M286,246.938l-5,2-1,2,1,3h2l3-1,2-2v-4Z" transform="translate(-122.5 -202.5)"/><path class="cls-4" d="M269.181,236.667l-5,4,5,4,3-2,2-5Z" transform="translate(-122.5 -202.5)"/><path class="cls-5" d="M205.093,224.73c0,2.321,11,0,11,0l17-1,9-6,3-4,10-4,6-3s3.861-2.733,1-2.733C239.912,206.39,201.666,220.979,205.093,224.73Z" transform="translate(-122.5 -202.5)"/><path class="cls-6" d="M282.141,525.2c-3.35-15.381,15-23,15-23h24l21-9,24,1,7,5S323.961,531.559,282.141,525.2Z" transform="translate(-122.5 -202.5)"/></svg>